<?xml version="1.0" encoding="UTF-8" standalone="no"?>
<!-- Created with Inkscape (http://www.inkscape.org/) -->

<svg
   xmlns:dc="http://purl.org/dc/elements/1.1/"
   xmlns:cc="http://creativecommons.org/ns#"
   xmlns:rdf="http://www.w3.org/1999/02/22-rdf-syntax-ns#"
   xmlns:svg="http://www.w3.org/2000/svg"
   xmlns="http://www.w3.org/2000/svg"
   xmlns:xlink="http://www.w3.org/1999/xlink"
   xmlns:sodipodi="http://sodipodi.sourceforge.net/DTD/sodipodi-0.dtd"
   xmlns:inkscape="http://www.inkscape.org/namespaces/inkscape"
   id="svg10873"
   sodipodi:docname="frigorifero-filledup.svg"
   viewBox="0 0 428.31 559.28"
   version="1.1"
   inkscape:version="0.91 r13725">
  <defs
     id="defs10875">
    <linearGradient
       id="linearGradient8828"
       y2="629.13"
       gradientUnits="userSpaceOnUse"
       x2="526.09"
       y1="629.13"
       x1="515.82"
       inkscape:collect="always">
      <stop
         id="stop8716-1"
         style="stop-color:#333333"
         offset="0" />
      <stop
         id="stop8726-9"
         style="stop-color:#4a4a4a"
         offset=".25" />
      <stop
         id="stop8722-2"
         style="stop-color:#909090"
         offset=".5" />
      <stop
         id="stop8724-5"
         style="stop-color:#4a4a4a"
         offset=".75" />
      <stop
         id="stop8718-6"
         style="stop-color:#333333"
         offset="1" />
    </linearGradient>
    <linearGradient
       id="linearGradient8830"
       y2="652.68"
       xlink:href="#linearGradient8714"
       gradientUnits="userSpaceOnUse"
       x2="351.14"
       gradientTransform="translate(-40.724 -58)"
       y1="652.68"
       x1="335.8"
       inkscape:collect="always" />
    <linearGradient
       id="linearGradient8714">
      <stop
         id="stop8716"
         style="stop-color:#333333"
         offset="0" />
      <stop
         id="stop8726"
         style="stop-color:#4a4a4a"
         offset=".25" />
      <stop
         id="stop8722"
         style="stop-color:#909090"
         offset=".5" />
      <stop
         id="stop8724"
         style="stop-color:#4a4a4a"
         offset=".75" />
      <stop
         id="stop8718"
         style="stop-color:#333333"
         offset="1" />
    </linearGradient>
    <linearGradient
       id="linearGradient8832"
       y2="652.68"
       xlink:href="#linearGradient8714"
       gradientUnits="userSpaceOnUse"
       x2="351.14"
       y1="652.68"
       x1="335.8"
       inkscape:collect="always" />
  </defs>
  <sodipodi:namedview
     id="base"
     bordercolor="#666666"
     inkscape:pageshadow="2"
     inkscape:window-y="1"
     fit-margin-left="0"
     pagecolor="#ffffff"
     fit-margin-top="0"
     inkscape:window-maximized="1"
     inkscape:zoom="1.4225"
     inkscape:window-x="4"
     inkscape:window-height="1035"
     showgrid="false"
     borderopacity="1.0"
     inkscape:current-layer="frigorifero"
     inkscape:cx="337.20054"
     inkscape:cy="286.75504"
     fit-margin-right="0"
     fit-margin-bottom="0"
     inkscape:window-width="1916"
     inkscape:pageopacity="0.0"
     inkscape:document-units="px" />
  <g
     id="layer1"
     inkscape:label="Layer 1"
     inkscape:groupmode="layer"
     transform="translate(-160.84 -252.73)">
    <g
       id="frigorifero"
       style="enable-background:new"
       inkscape:label="#g8782"
       transform="translate(-125.53 143.32)">
      <g
         id="g12879">
        <path
           inkscape:connector-curvature="0"
           style="stroke:#000000;stroke-width:1px;fill:#d3d7da"
           d="m340.5 266 184-4.5l-1.5 352.5-179.5 29z"
           id="path8780" />
        <path
           inkscape:connector-curvature="0"
           style="enable-background:accumulate;color:#000000;stroke:#000000;stroke-width:1px;fill:url(#linearGradient8828)"
           sodipodi:nodetypes="cccc"
           d="m516.61 619.45-0.25613 14.343c3.7484 2.4268 6.915 1.3636 9.989-0.25613v-15.368"
           id="path8712" />
        <path
           d="m295.57 587.83 0.51226 12.294c4.6103 1.8625 9.2206 2.1376 13.831-0.76838l-0.51225-11.013"
           inkscape:connector-curvature="0"
           style="stroke:#000000;stroke-width:1px;fill:url(#linearGradient8830)"
           sodipodi:nodetypes="cccc"
           id="path8728" />
        <path
           inkscape:connector-curvature="0"
           style="stroke:#000000;stroke-width:1px;fill:url(#linearGradient8832)"
           sodipodi:nodetypes="cccc"
           d="m336.11 642.57 0.69337 15.554c4.6103 1.8625 9.2206 2.1376 13.831-0.76838l0.3933-11.738"
           id="path8710" />
        <path
           inkscape:connector-curvature="0"
           style="enable-background:accumulate;color:#000000;stroke:#000000;stroke-width:1px;fill:#a6a4a7"
           d="m346.82 639.41 180.39-30.245 0.36222 9.961-180.75 29.702"
           id="path8596" />
        <path
           inkscape:connector-curvature="0"
           style="stroke:#000000;stroke-width:1px;fill:#f9f9f9"
           d="m348 278.25 5.25-5.25 157.5-3.5 5.75 4-0.5 321-5.25 9-154.75 24.75-5.25-3.5z"
           id="path8427" />
        <path
           id="path12476"
           d="m 488.7251,589.40913 5.38432,-8.62183 -30.13312,-16.22573 -112.83361,14.38958 0.37303,30.36308"
           sodipodi:nodetypes="ccccc"
           style="fill:#cccccc;stroke:#000000;stroke-width:1px"
           inkscape:connector-curvature="0" />
        <path
           inkscape:connector-curvature="0"
           style="stroke:#000000;stroke-width:1px;fill:#a6a4a7"
           d="m343.25 248.75 190-4.5 0.25 21.5-190 5.25"
           id="path8425" />
        <path
           inkscape:connector-curvature="0"
           style="opacity:.2;stroke:#000000;stroke-width:1px;fill:none"
           d="m347.25 639.5 173.25-28.75-0.25 9.25-173.5 29z"
           id="path8419" />
        <path
           inkscape:connector-curvature="0"
           style="stroke:#000000;stroke-width:1px;fill:#656064"
           d="m334.99 126.12-46.139 7.2478 5.3033 456.44 45.962 60.281"
           id="path8423" />
        <path
           inkscape:connector-curvature="0"
           style="stroke:#000000;stroke-width:1px;fill:none"
           sodipodi:nodetypes="cc"
           d="m448.48 271.26 0.35355 233.44"
           id="path8437" />
        <path
           inkscape:connector-curvature="0"
           style="stroke:#000000;stroke-width:1px;fill:#cccccc"
           sodipodi:nodetypes="cccc"
           d="m497.37 325.7-48.62-11.95-100.25 3.75l0.0508 15.528"
           id="path8431" />
        <path
           inkscape:connector-curvature="0"
           style="enable-background:accumulate;color:#000000;stroke:#000000;stroke-width:1px;fill:#cccccc"
           sodipodi:nodetypes="cccc"
           d="m497.44 457.28-48.69-19.53l-99.25 8.8021 0.24276 26.038"
           id="path8441" />
        <path
           inkscape:connector-curvature="0"
           style="stroke:#000000;stroke-width:1px;fill:#e6e6e6"
           d="m349.98 472.41 147.21-15.03 0.06 2.31-147.25 16.06"
           sodipodi:nodetypes="cccc"
           id="path8439" />
        <path
           d="m497.44 521.28-48.692-29.622-98.947 10.149 0.27301 36.581"
           inkscape:connector-curvature="0"
           style="enable-background:accumulate;color:#000000;stroke:#000000;stroke-width:1px;fill:#cccccc"
           sodipodi:nodetypes="cccc"
           id="path8445" />
        <path
           inkscape:connector-curvature="0"
           style="stroke:#000000;stroke-width:1px;fill:#847e83"
           sodipodi:nodetypes="ccccc"
           d="m521.3 257.53-0.00001 366.23 188.29 44.289 4.5983-403.68z"
           id="path8447" />
        <path
           d="m497.7 391.85-48.95-15.3l-99.892 4.4598 0.12034 21.453"
           inkscape:connector-curvature="0"
           style="enable-background:accumulate;color:#000000;stroke:#000000;stroke-width:1px;fill:#cccccc"
           sodipodi:nodetypes="cccc"
           id="path8435" />
        <path
           d="m349.34 402.42 148-10.501v3.3289l-147.94 10.532"
           style="stroke:#000000;stroke-width:1px;fill:#e6e6e6"
           inkscape:connector-curvature="0"
           sodipodi:nodetypes="cccc"
           id="path8433" />
        <path
           d="m350.44 538.68 146.75-17.3 0.06 4.01-146.73 18.35"
           style="stroke:#000000;stroke-width:1px;fill:#e6e6e6"
           inkscape:connector-curvature="0"
           sodipodi:nodetypes="cccc"
           id="path8443" />
        <path
           inkscape:connector-curvature="0"
           style="stroke:#000000;stroke-width:1px;fill:#7e7b7e"
           d="m340 650 7-1-4.75-522.75h-7.25z"
           id="path8421" />
        <path
           inkscape:connector-curvature="0"
           id="path12478"
           d="m 464.24566,564.09527 1.61411,-34.86492 0,0 0,0.32282 0,0 0,0 0,0"
           style="fill:none;fill-rule:evenodd;stroke:#000000;stroke-width:1px;stroke-linecap:butt;stroke-linejoin:miter;stroke-opacity:1" />
        <g
           style="stroke-width:1.09818482;stroke-miterlimit:4;stroke-dasharray:none"
           transform="matrix(0.8857703,0,0,0.93611244,38.55142,38.800276)"
           id="g12497">
          <path
             inkscape:connector-curvature="0"
             id="path12495"
             d="m 433.87323,561.79961 c 0.76539,1.11748 3.21278,0.12148 4.30006,1.62181 2.28654,0.89411 4.78028,1.21809 7.19097,1.74681 3.84458,0.44091 7.76524,-0.12034 11.60156,0.27617 3.60863,0.27108 4.05556,-3.12137 4.08984,-5.60216 1.00667,-1.98274 0.0439,-4.33415 -2.60651,-4.23573 -2.1963,-0.62394 -4.3432,-1.19221 -6.58623,-1.66 -3.73037,-1.09676 -7.68504,-0.50277 -11.53614,-0.64427 -1.29865,0 -2.59729,0 -3.89594,0 -1.37091,1.33877 -1.38514,0.0332 -2.12877,1.56318 -1.09129,1.13518 0.19077,4.03965 -0.12572,5.89458 -0.0535,0.35622 -0.1536,0.7081 -0.30312,1.03961 z"
             style="fill:#759e5b;fill-opacity:1;fill-rule:evenodd;stroke:#000000;stroke-width:1.09818482;stroke-linecap:butt;stroke-linejoin:miter;stroke-miterlimit:4;stroke-dasharray:none;stroke-opacity:1" />
          <path
             inkscape:connector-curvature="0"
             id="path12493"
             d="m 434.82327,545.46601 c 2.09101,-0.54848 4.12288,0.92051 5.82044,-0.27983 2.47505,-0.76723 4.78929,2.40194 2.42684,3.91075 -0.99447,0.66547 1.17931,-0.85916 1.82725,-0.52552 1.55927,-0.58885 3.63178,0.39314 2.42953,2.0973 -0.006,2.0449 3.63612,-0.64621 4.40509,1.49981 0.29794,1.8207 -2.74014,2.99018 -1.89419,4.87848 1.23398,1.58875 4.66407,3.24376 3.47503,5.5653 -1.1239,1.64847 -3.31756,1.85664 -5.04236,2.51981 -0.58185,1.68708 1.27082,3.74658 -0.51165,5.26157 -1.76912,1.84401 -5.00139,1.55629 -6.97524,0.16559 -2.24795,0.2367 -0.59507,4.42561 -3.66901,4.05931 -1.90496,0.62018 -3.2871,-0.85519 -4.41159,-1.75443 -0.8901,1.28846 -2.02559,2.46203 -3.83887,2.48198 -2.05112,0.29163 -4.16103,0.31176 -6.13873,0.95067 -2.99427,0.1845 -3.08393,-3.41969 -2.36128,-5.33143 0.58169,-1.45101 -0.9437,-2.5533 -1.99267,-1.14229 -2.32644,1.75158 -5.59388,-0.43321 -4.30039,-3.04917 -0.22238,-1.8823 2.25808,-3.47136 1.60782,-5.05171 -1.4263,-0.81406 -3.60844,-0.80806 -4.03269,-2.69797 -0.84241,-2.12781 0.25232,-4.75464 2.47777,-5.72467 2.7379,-1.1127 -0.005,-3.56282 1.25707,-5.36983 0.86427,-2.4909 3.55883,-2.14041 5.76499,-1.96399 1.4789,-0.43969 2.65588,3.48796 1.99524,1.12416 -0.14097,-2.58598 3.37877,-2.14137 4.45774,-0.57457 1.34085,-0.83273 -0.57778,-4.22652 2.16671,-4.18253 1.69282,0.32841 3.00409,2.19982 4.01308,2.69037 0.0209,0.50695 0.65219,0.49405 1.04407,0.44284 z"
             style="fill:#759e5b;fill-opacity:1;fill-rule:evenodd;stroke:#000000;stroke-width:1.09818482;stroke-linecap:butt;stroke-linejoin:miter;stroke-miterlimit:4;stroke-dasharray:none;stroke-opacity:1" />
        </g>
        <g
           id="g12501">
          <path
             style="fill:#759e5b;fill-opacity:1;fill-rule:evenodd;stroke:#000000;stroke-width:1px;stroke-linecap:butt;stroke-linejoin:miter;stroke-opacity:1"
             d="m 391.93323,573.77997 c 0.77286,-1.23111 3.24416,-0.13383 4.34206,-1.78672 2.30887,-0.98503 4.82697,-1.34195 7.26121,-1.92443 3.88214,-0.48574 7.84109,0.13258 11.71489,-0.30425 3.64388,-0.29864 4.09517,3.43876 4.12979,6.1718 1.0165,2.18434 0.0443,4.77485 -2.63197,4.66642 -2.21776,0.68738 -4.38563,1.31344 -6.65057,1.82879 -3.76681,1.20828 -7.76011,0.5539 -11.64883,0.70978 -1.31133,0 -2.62266,0 -3.93399,0 -1.3843,-1.4749 -1.39867,-0.0366 -2.14957,-1.72212 -1.10195,-1.25061 0.19264,-4.45041 -0.12694,-6.49395 -0.054,-0.39245 -0.1551,-0.7801 -0.30608,-1.14532 z"
             id="path12487"
             inkscape:connector-curvature="0" />
          <path
             style="fill:#759e5b;fill-rule:evenodd;stroke:#000000;stroke-width:1px;stroke-linecap:butt;stroke-linejoin:miter;stroke-opacity:1;fill-opacity:1"
             d="m 377.08336,560.22139 c -2.43444,-0.68644 -4.80002,1.15204 -6.77639,-0.35022 -2.88155,-0.96021 -5.57588,3.0061 -2.82542,4.89442 1.1578,0.83286 -1.373,-1.07526 -2.12736,-0.6577 -1.81537,-0.73697 -4.22826,0.49202 -2.82856,2.62483 0.007,2.55925 -4.23331,-0.80875 -5.12858,1.87705 -0.34687,2.27866 3.19018,3.7423 2.20529,6.10557 -1.43664,1.98837 -5.43009,4.05966 -4.04577,6.96514 1.3085,2.0631 3.86244,2.32364 5.87052,3.15361 0.67742,2.11143 -1.47954,4.68896 0.59568,6.58501 2.05969,2.30784 5.82282,1.94775 8.12086,0.20724 2.61715,0.29624 0.6928,5.53879 4.2716,5.08035 2.21784,0.77617 3.82698,-1.0703 5.13616,-2.19572 1.03628,1.61255 2.35827,3.0813 4.46936,3.10627 2.388,0.36499 4.84444,0.39018 7.14695,1.18979 3.48605,0.23091 3.59044,-4.27984 2.7491,-6.67244 -0.67722,-1.81598 1.09869,-3.19553 2.31995,-1.42961 2.70853,2.19216 6.51262,-0.54217 5.00668,-3.81612 0.25891,-2.35576 -2.62894,-4.34452 -1.87188,-6.32237 1.66055,-1.01882 4.20108,-1.01131 4.69501,-3.37659 0.98077,-2.66302 -0.29376,-5.95057 -2.88472,-7.1646 -3.18757,-1.39257 0.006,-4.45897 -1.46353,-6.7205 -1.00621,-3.11743 -4.14333,-2.67878 -6.71183,-2.45799 -1.72179,-0.55028 -3.09208,4.36529 -2.32294,1.40692 0.16413,-3.23643 -3.93369,-2.67999 -5.18988,-0.71909 -1.56107,-1.04219 0.67268,-5.28961 -2.52256,-5.23456 -1.97085,0.41101 -3.49749,2.75314 -4.67219,3.36708 -0.0243,0.63446 -0.75931,0.61832 -1.21555,0.55423 z"
             id="path12480"
             inkscape:connector-curvature="0" />
        </g>
        <g
           id="g12519">
          <path
             style="fill:#62af30;fill-rule:evenodd;stroke:#000000;stroke-width:1px;stroke-linecap:butt;stroke-linejoin:miter;stroke-opacity:1;fill-opacity:1"
             d="m 448.75014,576.36256 c 3.16719,-1.18324 5.14219,-4.30701 8.43751,-5.19856 -0.82095,-0.0192 2.42065,-0.31874 2.80382,-1.2332 1.18198,-0.0783 4.09791,-2.82971 3.93068,-0.55648 -1.21248,1.15378 -5.34636,2.20037 -4.36525,3.70199 2.59729,0.047 5.70886,-1.39069 7.96377,-0.58566 -0.89671,1.76074 -5.74577,1.47457 -5.48291,2.96142 3.05858,-0.43488 6.14718,-0.75959 9.20765,-0.99988 0.48928,2.25922 -3.59421,2.4601 -5.32676,2.75812 -3.32606,0.75427 2.43754,0.46514 3.37069,0.3106 4.04567,0.34683 -0.33544,4.18776 -2.54843,3.3763 -3.27681,-0.0377 -6.65946,-0.17217 -9.8554,0.38023 -1.10554,1.24689 -4.59876,0.30545 -6.83058,0.52259 -2.98091,-0.10818 0.25092,-4.06186 -1.30479,-5.43747 z"
             id="path12512"
             inkscape:connector-curvature="0" />
          <path
             style="fill:#d45500;fill-rule:evenodd;stroke:#000000;stroke-width:1px;stroke-linecap:butt;stroke-linejoin:miter;stroke-opacity:1"
             d="m 451.0099,573.13432 c -1.59621,1.64559 -4.04593,1.85266 -5.09714,1.98927 -4.1851,1.702 -8.67917,2.29909 -13.00134,3.48392 -2.20677,1.29982 -6.43965,1.45041 -6.5304,4.27379 -2.91039,1.12882 -5.65766,2.6593 -8.76508,3.20949 -2.79288,-0.17962 -3.22906,2.13387 -0.76132,3.14344 2.90997,1.12944 6.85421,1.12269 9.71934,-0.36086 2.62164,-0.25652 5.15742,-0.46341 7.8818,-1.042 2.53298,-0.25019 5.79184,-0.56247 7.52725,-2.07764 1.79257,-0.16914 4.50019,-1.94311 6.80562,-1.902 2.01135,-0.27734 3.31331,-1.26301 3.63745,-1.86491 2.33675,-1.52022 1.02764,-4.85187 -0.33853,-6.77318 -0.0837,-0.80916 -0.87686,-1.30388 -1.07765,-2.07932 z"
             id="path12507"
             inkscape:connector-curvature="0" />
        </g>
        <path
           inkscape:connector-curvature="0"
           style="enable-background:accumulate;color:#000000;stroke:#000000;stroke-width:1px;fill:#b7c4c8;opacity:0.712"
           sodipodi:nodetypes="ccccccc"
           d="m492.86 526.36 3.0804 2.0536-0.96691 52.708-6.2206 8.8988-135.19 20.536-2.7381-2.0536-0.68453-64.345"
           id="path8466" />
        <path
           inkscape:connector-curvature="0"
           style="stroke:#000000;stroke-width:1px;fill:#b3b3b3"
           d="m525.17 261.95 178.61 6.7764-3.3882 394.73-176.19-41.385z"
           id="path8468" />
        <path
           inkscape:connector-curvature="0"
           style="stroke:#000000;stroke-width:1px;fill:#cccccc"
           sodipodi:nodetypes="cccccc"
           d="m538.38 273.09 155.04 6.503-4.7917 375.12-160.52-37.991-0.34226-344.03z"
           id="path8472" />
        <path
           inkscape:connector-curvature="0"
           style="stroke:#000000;stroke-width:1px;fill:#f2f2f2"
           sodipodi:nodetypes="ccccc"
           d="m540.12 282.15 142.61 5.2072-3.3882 360.12-142.55-33.156z"
           id="path8470" />
        <path
           sodipodi:nodetypes="cccccccccc"
           inkscape:connector-curvature="0"
           id="path12874"
           d="m 546.10565,405.79668 c -0.58914,-1.86669 -1.10165,-3.73451 -0.8658,-5.72428 0.12062,-2.08653 -0.0611,-4.23062 0.45722,-6.27131 0.91068,-2.23417 0.75049,-4.74351 1.4765,-7.01579 0.64176,-1.27916 -0.77329,-6.42012 3.46419,-4.70758 2.08761,1.57501 2.00482,3.84852 2.46372,6.48734 1.2535,4.67174 0.43782,9.56253 0.66374,14.33062 0.27405,2.46094 -0.36396,4.706 -0.49872,7.11713 -0.35842,3.09889 -4.06759,2.22207 -6.27535,2.57858 -3.13675,-2.19199 -1.05947,-4.22827 -0.8855,-6.79471 z"
           style="fill:#bd8754;fill-opacity:1;fill-rule:evenodd;stroke:#000000;stroke-width:1px;stroke-linecap:butt;stroke-linejoin:miter;stroke-opacity:1" />
        <g
           id="g12718">
          <path
             style="fill:#f2f0e9;fill-rule:evenodd;stroke:#000000;stroke-width:1px;stroke-linecap:butt;stroke-linejoin:miter;stroke-opacity:1;fill-opacity:1"
             d="m 576.06168,414.73846 c -3.70917,3.78694 -10.89582,3.26612 -14.99148,0.61015 -3.59211,-4.90409 -2.42147,-11.50948 -3.27643,-17.22154 -0.93959,-7.35295 3.94611,-13.52145 5.45682,-20.45123 1.79438,-7.19752 7.96509,-12.88029 7.72358,-20.686 0.53903,-4.6568 -0.13885,-15.18405 7.45474,-10.55031 1.24964,6.64451 -0.77128,13.59468 0.2639,20.36985 0.80624,9.66266 0.99998,19.36915 2.60052,28.95873 -0.27756,6.2585 1.53235,15.6475 -5.23165,18.97035 z"
             id="path12703"
             inkscape:connector-curvature="0" />
          <path
             style="fill:#bc605e;fill-opacity:1;fill-rule:evenodd;stroke:#000000;stroke-width:1;stroke-linecap:butt;stroke-linejoin:miter;stroke-opacity:1;stroke-miterlimit:4;stroke-dasharray:none"
             d="m 569.30068,349.81611 c 0.23825,1.17556 1.55828,1.56728 2.61427,1.74461 2.72536,0.54398 5.52753,0.46022 8.29052,0.37654 0.98012,0.0358 1.4815,-0.96035 1.24718,-1.79432 -0.19563,-1.13639 -0.63262,-2.25447 -0.4699,-3.42435 -0.21106,-2.77917 -1.52802,-2.98085 -3.81912,-3.38044 -7.08388,-1.14699 -8.07132,0.16473 -7.86295,6.47796 z"
             id="path12709"
             inkscape:connector-curvature="0"
             sodipodi:nodetypes="ccccccc" />
        </g>
        <path
           inkscape:connector-curvature="0"
           style="enable-background:accumulate;color:#000000;stroke:#000000;stroke-width:1px;fill:#97aab0"
           sodipodi:nodetypes="ccc"
           d="m522.14 401.05 16.753-2.7809 0.0339 4.6801"
           id="path8498" />
        <path
           inkscape:connector-curvature="0"
           style="stroke:#000000;stroke-width:1px;fill:#b7c4c8;opacity:0.712"
           d="m522.51 401.1v14.763l60.02 6.7764 14.521-2.1781 0.48403-15.247-13.795 2.9042z"
           id="path8482" />
        <path
           inkscape:connector-curvature="0"
           style="enable-background:accumulate;color:#000000;stroke:#000000;stroke-width:1px;fill:#97aab0"
           sodipodi:nodetypes="cc"
           d="m521.73 453.28 16.686-4.7479-0.0339 7.461"
           id="path8504" />
        <path
           inkscape:connector-curvature="0"
           style="enable-background:accumulate;color:#000000;stroke:#000000;stroke-width:1px;fill:#97aab0"
           sodipodi:nodetypes="cc"
           d="m520.06 580.25 16.963-6.6024 0.0605 10.523"
           id="path8506" />
        <g
           id="g12561">
          <path
             style="fill:#edf6f8;fill-rule:evenodd;stroke:#000000;stroke-width:1px;stroke-linecap:round;stroke-linejoin:round;stroke-opacity:1;fill-opacity:1"
             d="m 550.43949,552.15081 -7.74776,65.21031 16.46399,4.1967 7.74776,-2.58258 8.3934,-72.95808 -9.93045,10.00752 -6.18427,65.41511 6.1072,-65.4151 10.00752,-9.95688 -17.14575,-3.47883 -6.61546,7.94771 z"
             id="path12523"
             inkscape:connector-curvature="0"
             sodipodi:nodetypes="cccccccccccc" />
          <path
             style="fill:none;fill-rule:evenodd;stroke:#000000;stroke-width:1px;stroke-linecap:butt;stroke-linejoin:miter;stroke-opacity:1"
             d="m 550.11666,552.47363 15.14626,3.51978"
             id="path12525"
             inkscape:connector-curvature="0"
             sodipodi:nodetypes="cc" />
          <g
             id="g12546">
            <path
               inkscape:connector-curvature="0"
               id="path12527"
               d="m 550.97802,558.6826 c 0,-0.21859 -0.21859,-0.65578 0,-0.65578 0.2186,0 0,0.87438 0,0.65578 0,-0.32789 0,-0.65578 0,-0.98367 0,-0.1093 -0.0773,-0.25061 0,-0.32789 0.0546,-0.0547 0.1093,0.21859 0.16395,0.16395 0.0773,-0.0773 0,-0.2186 0,-0.3279 0,-0.0546 0,-0.10929 0,-0.16394 0,-0.0546 -0.0547,-0.16395 0,-0.16395 0.0546,0 -0.0386,0.20259 0,0.16395 0.0864,-0.0864 0.16395,-0.20569 0.16395,-0.32789 0,-0.0773 -0.16395,-0.0867 -0.16395,-0.16395 0,-0.0773 0.0867,-0.16394 0.16395,-0.16394 0.0546,0 -0.0547,0.16394 0,0.16394 0.0773,0 0.16394,-0.0867 0.16394,-0.16394 0,-0.0546 -0.1253,0.0386 -0.16394,0 -0.0387,-0.0387 -0.0387,-0.12531 0,-0.16395 0.0386,-0.0386 0.1253,0.0386 0.16394,0 0.0386,-0.0386 -0.0386,-0.1253 0,-0.16394 0.0386,-0.0386 0.16395,-0.0546 0.16395,0 0,0.0546 -0.2186,0 -0.16395,0 0.1093,0 0.21859,0 0.32789,0 0.0546,0 -0.21859,0 -0.16394,0 0.10929,0 0.2506,-0.0773 0.32789,0 0.0546,0.0546 -0.16395,0.0867 -0.16395,0.16394 0,0.0546 0.13951,-0.0489 0.16395,0 0.0489,0.0978 -0.0773,0.25061 0,0.32789 0.0546,0.0547 0.16394,-0.0867 0.16394,-0.16394 0,-0.0546 -0.16394,-0.0546 -0.16394,0 0,0.12219 0.0775,0.24148 0.16394,0.32789 0.0386,0.0386 0,-0.2186 0,-0.16395 0,0.2186 0,0.43719 0,0.65578 0,0.0546 -0.0386,0.12531 0,0.16395 0.0386,0.0386 0.16395,-0.0547 0.16395,0 0,0.1222 -0.0775,0.24148 -0.16395,0.32789 -0.0386,0.0386 0,-0.21859 0,-0.16394 0,0.10929 0,0.21859 0,0.32789 0,0.0546 -0.0547,-0.16395 0,-0.16395 0.0546,0 -0.0386,0.1253 0,0.16395 0.098,0.098 0.32789,-0.0999 0.32789,-0.16395 0,-0.0773 -0.16394,-0.0867 -0.16394,-0.16394 0,-0.0547 0.1253,0.0386 0.16394,0 0.0773,-0.0773 -0.0773,-0.25061 0,-0.3279 0.0387,-0.0386 0.16395,0.0546 0.16395,0 0,-0.0773 -0.16395,-0.0867 -0.16395,-0.16394 0,-0.0463 0.67278,-0.49184 0.16395,-0.49184 -0.0546,0 -0.0546,0.16395 0,0.16395 0.1222,0 0.27324,-0.0546 0.32789,-0.16395 0.0346,-0.0691 -0.21859,-0.10929 -0.16395,-0.16394 0.0773,-0.0773 0.2186,0 0.3279,0 0.0546,0 -0.16395,0.0546 -0.16395,0 0,-0.0546 0.11507,0.0244 0.16395,0 0.0691,-0.0346 0.16394,-0.0867 0.16394,-0.16395 0,-0.0546 -0.21859,0 -0.16394,0 0.16394,0 0.32789,0 0.49183,0 0.0546,0 0.16395,-0.0546 0.16395,0 0,0.0546 -0.16395,0.0546 -0.16395,0 0,-0.0546 0.12531,-0.0386 0.16395,0 0.0386,0.0386 -0.0244,0.11507 0,0.16395 0.0346,0.0691 0.16394,0.0867 0.16394,0.16394 0,0.0547 -0.1253,-0.0386 -0.16394,0 -0.005,0.005 0,0.45208 0,0.49184 0,0.54648 0,1.09297 0,1.63945 0,0.0546 0,0.1093 0,0.16395 0,0.0546 0.0386,0.1253 0,0.16395 -0.0386,0.0386 -0.12531,-0.0387 -0.16395,0 -0.007,0.007 0,0.59557 0,0.65578"
               style="fill:none;fill-rule:evenodd;stroke:#000000;stroke-width:1px;stroke-linecap:butt;stroke-linejoin:miter;stroke-opacity:1" />
            <path
               inkscape:connector-curvature="0"
               id="path12533"
               d="m 555.89639,556.05948 c 0.7598,0.64626 -0.32789,0.52543 -0.32789,0.81972 0,0.0546 0.1253,-0.0386 0.16394,0 0.0387,0.0387 0.0387,0.12531 0,0.16395 -0.0864,0.0864 -0.27324,0.0546 -0.32789,0.16394 -0.0346,0.0691 0.12939,0.0948 0.16395,0.16395 0.0244,0.0489 0.0244,0.11507 0,0.16395 -0.0456,0.0911 -0.32789,0.27502 -0.32789,0.32789 0,0.0773 0.0867,0.16394 0.16394,0.16394 0.0546,0 0,-0.21859 0,-0.16394 0,0.10929 0,0.21859 0,0.32789 0,0.0546 -0.0547,-0.16395 0,-0.16395 0.0546,0 0,0.1093 0,0.16395 0,0.0546 0,0.10929 0,0.16394 0,0.0547 0.0244,0.11507 0,0.16395 -0.0346,0.0691 -0.12938,0.0948 -0.16394,0.16394 -0.0244,0.0489 0,0.1093 0,0.16395 0,0.0546 0,0.1093 0,0.16395 0,0.54648 0,-0.38254 0,0.16394 0,0.0547 0.0546,0.16395 0,0.16395 -0.0546,0 0,-0.2186 0,-0.16395 0,0.21859 0,0.43719 0,0.65578"
               style="fill:none;fill-rule:evenodd;stroke:#000000;stroke-width:1px;stroke-linecap:butt;stroke-linejoin:miter;stroke-opacity:1" />
            <path
               inkscape:connector-curvature="0"
               id="path12535"
               d="m 554.25693,559.99417 c 0.27325,0 0.54649,0 0.81973,0 0.0546,0 0.16395,-0.0546 0.16395,0 0,0.0547 -0.16395,0.0547 -0.16395,0 0,-0.0546 0.1093,0 0.16395,0 0.0546,0 0.10929,0 0.16394,0 0.0546,0 0.1093,0 0.16395,0 0.0546,0 0.16394,-0.0546 0.16394,0 0,0.0547 -0.21859,0 -0.16394,0 0.1093,0 0.2506,-0.0773 0.32789,0 0.0546,0.0547 -0.0867,0.16394 -0.16395,0.16394 -0.0546,0 0,-0.10929 0,-0.16394"
               style="fill:none;fill-rule:evenodd;stroke:#000000;stroke-width:1px;stroke-linecap:butt;stroke-linejoin:miter;stroke-opacity:1" />
            <path
               inkscape:connector-curvature="0"
               id="path12537"
               d="m 554.74877,555.23975 c 0.21859,0.1093 0.43719,0.21859 0.65578,0.32789 0.0546,0 0.1121,-0.0173 0.16395,0 0.11593,0.0386 0.20569,0.16395 0.32789,0.16395 0.0773,0 -0.21859,-0.2186 -0.16395,-0.16395 0.1093,0.1093 0.2186,0.21859 0.32789,0.32789 0.0546,0.0547 -0.21859,-0.1093 -0.16394,-0.16394 0.0773,-0.0773 0.25061,-0.0773 0.32789,0 0.0546,0.0546 -0.21859,0.10929 -0.16395,0.16394 0.0773,0.0773 0.2186,0 0.3279,0 0.0546,0 -0.16395,0.0547 -0.16395,0 0,-0.0546 0.1093,0 0.16395,0 0.0546,0 0.16394,-0.0546 0.16394,0 0,0.0547 -0.20259,-0.0386 -0.16394,0 0.59435,0.59435 0.28949,0 0.16394,0 -0.0546,0 -0.0386,0.1253 0,0.16395 0.0386,0.0386 0.16395,-0.0546 0.16395,0 0,0.0546 -0.1093,0 -0.16395,0"
               style="fill:none;fill-rule:evenodd;stroke:#000000;stroke-width:1px;stroke-linecap:butt;stroke-linejoin:miter;stroke-opacity:1" />
            <path
               inkscape:connector-curvature="0"
               id="path12539"
               d="m 557.86373,556.05948 c 0,0.21859 0,0.43718 0,0.65578 0,0.0547 0,-0.2186 0,-0.16395 0,0.1093 0,0.2186 0,0.32789 0,0.0546 0.0546,0.16395 0,0.16395 -0.0546,0 0,-0.21859 0,-0.16395 0,0.1093 0,0.2186 0,0.32789 0,0.0546 0,-0.21859 0,-0.16394 0,0.1093 0,0.21859 0,0.32789 0,0.0546 0,-0.21859 0,-0.16395 0,0.1093 0,0.2186 0,0.3279 0,0.0546 0,-0.2186 0,-0.16395 0,0.1093 0.0773,0.25061 0,0.32789 -0.0546,0.0546 -0.10929,-0.21859 -0.16394,-0.16394 -0.0773,0.0773 0,0.21859 0,0.32789 0,0.0546 -0.0546,-0.16395 0,-0.16395 0.0546,0 0,0.1093 0,0.16395 0,0.0546 0.0546,0.16394 0,0.16394 -0.0546,0 0,-0.21859 0,-0.16394 0,0.10929 0,0.21859 0,0.32789 0,0.0546 0,-0.2186 0,-0.16395 0,0.1093 0.0773,0.25061 0,0.32789 -0.0546,0.0547 -0.16395,-0.24123 -0.16395,-0.16394 0,0.1222 0.16395,0.20569 0.16395,0.32789 0,0.0773 -0.12938,0.0948 -0.16395,0.16394 -0.0244,0.0489 0.0244,0.11507 0,0.16395 -0.0346,0.0691 -0.16394,0.0867 -0.16394,0.16395 0,0.0546 0.1253,-0.0387 0.16394,0 0.0387,0.0386 0.0546,0.16394 0,0.16394 -0.0546,0 0,-0.21859 0,-0.16394 0,0.10929 0,0.21859 0,0.32789 0,0.0546 0.0387,-0.20259 0,-0.16395 -0.0864,0.0864 -0.0775,0.24148 -0.16394,0.32789 -0.0386,0.0386 0.0547,-0.16394 0,-0.16394 -0.0773,0 -0.16395,0.0867 -0.16395,0.16394 0,0.0773 0.0867,0.16395 0.16395,0.16395 0.0547,0 0.0547,-0.16395 0,-0.16395 -0.34115,0 -0.066,0.22991 -0.16395,0.32789 -0.0386,0.0386 -0.16394,-0.0546 -0.16394,0 0,0.0773 0.0867,0.16395 0.16394,0.16395 0.1093,0 -0.0546,-0.38254 -0.16394,-0.16395 -0.0489,0.0978 0,0.2186 0,0.32789 0,0.0546 0,-0.21859 0,-0.16394 0,0.10929 0,0.21859 0,0.32789 0,0.0546 -0.0547,-0.16395 0,-0.16395 0.0546,0 0,0.1093 0,0.16395 0,0.0546 0.0546,0.16394 0,0.16394 -0.0547,0 0,-0.21859 0,-0.16394 0,0.1093 0,0.21859 0,0.32789 0,0.0546 -0.0547,-0.16395 0,-0.16395 0.0546,0 0,0.1093 0,0.16395 0,0.0546 0.0546,0.16395 0,0.16395 -0.0547,0 -0.0386,-0.12531 0,-0.16395 0.0386,-0.0386 0.10929,0 0.16394,0 0.0547,0 0.1093,0 0.16395,0 0.1093,0 0.27901,-0.0978 0.32789,0 0.0546,0.1093 -0.0775,0.24148 -0.16395,0.32789 -0.0386,0.0386 -0.0489,-0.1395 0,-0.16394 0.0978,-0.0489 0.2186,0 0.32789,0 0.0546,0 -0.20258,-0.0387 -0.16394,0 0.0864,0.0864 0.24148,0.0775 0.32789,0.16394 0.0386,0.0386 -0.21859,0 -0.16395,0 0.1093,0 0.2186,0 0.3279,0 0.0546,0 -0.12531,-0.0386 -0.16395,0 -0.0386,0.0386 0.0546,0.16395 0,0.16395 -0.0547,0 -0.0489,-0.13951 0,-0.16395 0.0978,-0.0489 0.21859,0 0.32789,0"
               style="fill:none;fill-rule:evenodd;stroke:#000000;stroke-width:1px;stroke-linecap:butt;stroke-linejoin:miter;stroke-opacity:1" />
            <path
               inkscape:connector-curvature="0"
               id="path12541"
               d="m 560.81475,557.37104 c 0.0216,0.46048 -0.36022,0.75279 -0.49183,1.14762 -0.0173,0.0518 0.0386,0.1253 0,0.16394 -0.0386,0.0386 -0.12531,-0.0386 -0.16395,0 -0.0335,0.0335 0.0325,0.42684 0,0.49184 -0.0346,0.0691 -0.16394,0.0867 -0.16394,0.16395 0,0.12219 0.16394,0.20569 0.16394,0.32789 0,0.0546 -0.1395,-0.0489 -0.16394,0 -0.0489,0.0978 0,0.21859 0,0.32789 0,0.0547 -0.0546,-0.16395 0,-0.16395 0.0546,0 0,0.1093 0,0.16395 0,0.0547 0.0546,0.16394 0,0.16394 -0.0546,0 -0.0546,-0.16394 0,-0.16394 0.0546,0 0,0.10929 0,0.16394 0,0.0546 0.0546,0.16395 0,0.16395 -0.0546,0 0,-0.2186 0,-0.16395 0,0.1093 0,0.2186 0,0.32789 0,0.0546 0,-0.21859 0,-0.16394 0,0.1093 0.0773,0.25061 0,0.32789 -0.0546,0.0546 -0.1093,-0.21859 -0.16395,-0.16395 -0.004,0.004 0,0.93583 0,0.98368 0,0.0546 0,-0.1093 0,-0.16395"
               style="fill:none;fill-rule:evenodd;stroke:#000000;stroke-width:1px;stroke-linecap:butt;stroke-linejoin:miter;stroke-opacity:1" />
            <path
               inkscape:connector-curvature="0"
               id="path12543"
               d="m 562.45421,559.33839 c 0.0547,0.0546 0.21854,0.10934 0.16394,0.16394 -0.0773,0.0773 -0.21859,0 -0.32789,0 -0.10929,0 -0.21859,0 -0.32789,0 -0.0546,0 0.16395,0.0546 0.16395,0 0,-0.0546 -0.10935,0 -0.16395,0 -0.54648,0 -1.09297,0 -1.63945,0 0.16394,0.16395 0.65578,0.32789 0.49183,0.49184 -0.16394,0.16394 -0.72368,-0.49184 -0.49183,-0.49184 0.82821,0 0.50018,0.50019 0.81972,0.81973 0.0386,0.0386 -0.0386,-0.20259 0,-0.16395 0.0864,0.0864 0.0546,0.27325 0.16395,0.32789 0.0691,0.0346 0.1093,-0.21859 0.16395,-0.16394 0.0773,0.0773 0,0.21859 0,0.32789 0,0.0547 0.0546,0.16395 0,0.16395 -0.0547,0 -0.0387,-0.20259 0,-0.16395 0.0864,0.0864 0.0775,0.24148 0.16394,0.32789 0.0386,0.0386 -0.0547,-0.16394 0,-0.16394 0.0546,0 -0.0244,0.11506 0,0.16394 0.20259,0.40518 0.16395,-0.0566 0.16395,0.32789"
               style="fill:none;fill-rule:evenodd;stroke:#000000;stroke-width:1px;stroke-linecap:butt;stroke-linejoin:miter;stroke-opacity:1" />
          </g>
          <path
             style="fill:none;fill-rule:evenodd;stroke:#3f7279;stroke-width:2;stroke-linecap:round;stroke-linejoin:round;stroke-opacity:1;stroke-miterlimit:4;stroke-dasharray:none"
             d="m 551.46986,571.14246 c 2.3925,-1.17793 5.96477,-3.56422 8.32178,-1.35103 0.739,3.12733 -2.80455,4.69349 -4.78783,6.33452 -3.32684,2.04635 -0.12885,4.82993 2.31841,5.59876 3.87641,1.75244 -0.0421,5.03587 -2.30281,6.06019 -2.85533,1.09659 -3.55928,6.00141 -0.21132,6.92211 3.00152,1.52587 1.22839,5.12156 -1.13231,6.23758 -0.35601,0.28003 -0.69677,0.60369 -0.8944,1.01969"
             id="path12555"
             inkscape:connector-curvature="0" />
        </g>
        <path
           inkscape:connector-curvature="0"
           style="stroke:#000000;stroke-width:1px;fill:#e6e6e6"
           sodipodi:nodetypes="cccc"
           d="m597.12 332.33-1.8653 167.35 9.4959 1.6279 1.3566-168.21"
           id="path8492" />
        <path
           inkscape:connector-curvature="0"
           style="stroke:#000000;stroke-width:1px;fill:#b3b3b3"
           d="m606.11 332.55-1.0852 168.76 11.666-4.0697 1.0852-158.17 3.527-1.6279 59.96 4.341 0.16957-5.2566"
           id="path8494" />
        <path
           inkscape:connector-curvature="0"
           style="enable-background:accumulate;color:#000000;stroke:#000000;stroke-width:1px;fill:#97aab0"
           sodipodi:nodetypes="cc"
           d="m522.37 308.57 17.533-2.6114-0.10174 3.8662"
           id="path8496" />
        <path
           inkscape:connector-curvature="0"
           style="enable-background:accumulate;color:#000000;stroke:#000000;stroke-width:1px;fill:#97aab0"
           sodipodi:nodetypes="cc"
           d="m600.34 409.26 16.974-2.6792-0.0339 4.8158"
           id="path8500" />
        <path
           inkscape:connector-curvature="0"
           style="enable-background:accumulate;color:#000000;stroke:#000000;stroke-width:1px;fill:#97aab0"
           sodipodi:nodetypes="ccc"
           d="m599.12 464.88 17.738-4.4952 0.00046 7.182"
           id="path8502" />
        <path
           inkscape:connector-curvature="0"
           style="stroke:#000000;stroke-width:1px;fill:#b7c4c8;opacity:0.712"
           d="m522.75 308.65v17.425l144.48 11.375 14.763-0.96807 0.48403-18.877-15.005 1.6941z"
           id="path8480" />
        <path
           inkscape:connector-curvature="0"
           style="stroke:#000000;stroke-width:1px;fill:#a5a0a4"
           d="m338.31 110.39-0.18111 11.41 196.5 4.3466 0.18111-11.41z"
           id="path8640" />
        <path
           inkscape:connector-curvature="0"
           style="enable-background:accumulate;color:#000000;stroke:#000000;stroke-width:1px;fill:#656064"
           sodipodi:nodetypes="ccccccc"
           d="m337.95 110.03-51.073 10.685 0.0906 12.949 47.879-7.6675-0.051-4.0997 3.2447-0.005z"
           id="path8642" />
        <path
           inkscape:connector-curvature="0"
           style="stroke:#000000;stroke-width:1px;fill:#333333"
           sodipodi:nodetypes="cccc"
           d="m534.61 126.31-14.674 4.4447-185.18-4.6103-0.12806-4.3542"
           id="path8669" />
        <path
           inkscape:connector-curvature="0"
           style="enable-background:accumulate;color:#000000;stroke:#000000;stroke-width:1px;fill:#656064"
           sodipodi:nodetypes="ccccc"
           d="m534.54 127.94 0.25613 120.38-196.19 5.1226-1.2806-129.34z"
           id="path8644" />
        <path
           inkscape:connector-curvature="0"
           style="stroke:#000000;stroke-width:1px;fill:none"
           sodipodi:nodetypes="cccc"
           d="m350.81 613.33 139.64-21.009 6.8822-10.867 1.2678-311.51"
           id="path8708" />
        <path
           inkscape:connector-curvature="0"
           style="fill:#e6e6e6;stroke:#000000;stroke-width:1px"
           sodipodi:nodetypes="cccc"
           d="m 348.92,332.94 148.89973,-7.02605 0,3.5 L 348.92,335.75"
           id="path8429" />
        <path
           inkscape:connector-curvature="0"
           style="stroke:#000000;stroke-width:1px;fill:#808080"
           d="m345.75 237 0.25 11.75 50.25-1.25v-11.5z"
           id="path8778" />
        <g
           transform="translate(45.412901,11.476184)"
           id="g12574">
          <g
             transform="translate(-0.32789098,-0.16394549)"
             id="g12631">
            <path
               style="fill:#e7dbd8;fill-opacity:1;fill-rule:evenodd;stroke:#000000;stroke-width:1px;stroke-linecap:round;stroke-linejoin:round;stroke-opacity:1"
               d="m 550.43949,552.15081 -7.74776,65.21031 25.80888,5.83615 7.74776,-2.58258 8.3934,-72.95808 -9.93045,10.00752 -6.18427,65.41511 6.1072,-65.4151 10.00752,-9.95688 -23.53962,-4.29855 -9.56648,7.12798 z"
               id="path12576"
               inkscape:connector-curvature="0"
               sodipodi:nodetypes="cccccccccccc" />
            <path
               style="fill:none;fill-rule:evenodd;stroke:#000000;stroke-width:1px;stroke-linecap:butt;stroke-linejoin:miter;stroke-opacity:1"
               d="m 550.11666,552.47363 24.32721,5.32318"
               id="path12578"
               inkscape:connector-curvature="0"
               sodipodi:nodetypes="cc" />
            <g
               id="g12614"
               style="stroke:#822424;stroke-opacity:1">
              <path
                 inkscape:connector-curvature="0"
                 id="path12598"
                 d="m 552.28959,563.60097 c 0,-1.20226 0,-2.40453 0,-3.6068 0,-0.24621 -0.0435,-0.60248 0,-0.81973 0.024,-0.11982 0.13431,-0.20934 0.16395,-0.32789 0.0265,-0.10603 -0.0489,-0.23013 0,-0.32789 0.0244,-0.0489 0.16394,-0.0546 0.16394,0 0,0.0547 -0.16394,0.0547 -0.16394,0 0,-0.26229 0.32789,-0.0656 0.32789,-0.32789 0,-0.0773 -0.19851,-0.0948 -0.16395,-0.16394 0.0547,-0.1093 0.27324,-0.0546 0.32789,-0.16395 0.064,-0.12805 -0.35247,-0.13937 -0.16394,-0.32789 0.16892,-0.16892 0.49183,-0.20221 0.49183,-0.16395 0,0.0546 -0.1253,0.0386 -0.16394,0 -0.0387,-0.0386 -0.0387,-0.1253 0,-0.16394 0.0864,-0.0864 0.24148,-0.0775 0.32789,-0.16395 0.098,-0.098 -0.6823,0.17721 0,-0.16394 0.0489,-0.0244 0.16394,0.0547 0.16394,0 0,-0.0773 -0.0867,-0.16395 -0.16394,-0.16395 -0.0547,0 -0.0519,0.18123 0,0.16395 0.18692,-0.0623 0.3342,-0.20967 0.49183,-0.32789 0.58292,-0.43719 -0.25502,0 0.3279,0 0.23582,0 0.49183,-0.39546 0.49183,-0.16395 0,0.0546 -0.21859,0 -0.16394,0 1.05653,0 -0.29146,0 0.32789,0 0.0546,0 0.16394,-0.0546 0.16394,0 0,0.0773 -0.16394,0.0867 -0.16394,0.16395 0,0.40244 0.78966,-0.13389 0.16394,0.49183 -0.0386,0.0387 -0.0546,-0.16394 0,-0.16394 0.0773,0 0.0948,0.12938 0.16395,0.16394 0.0489,0.0244 0.16394,-0.0546 0.16394,0 0,0.0546 -0.1395,-0.0489 -0.16394,0 -0.0489,0.0978 -0.0978,0.27902 0,0.32789 0.1093,0.0546 0.24148,-0.25035 0.32789,-0.16394 0.0864,0.0864 -0.20259,0.21196 -0.16395,0.32789 0.0387,0.11593 0.27325,0.0546 0.32789,0.16395 0.0346,0.0691 -0.12938,0.0948 -0.16394,0.16394 -0.0244,0.0489 -0.0489,0.13951 0,0.16395 0.0978,0.0489 0.27901,-0.0978 0.32789,0 0.0546,0.10929 -0.1253,0.21196 -0.16395,0.32789 -0.0322,0.0967 0,0.72812 0,0.81972 0,0.39407 -0.0173,-0.0691 0.16395,0.65579 0.0429,0.17155 -0.0526,0.49804 0,0.65578 0.0386,0.11593 0.16395,0.20569 0.16395,0.32789 0,0.0773 -0.12939,0.0948 -0.16395,0.16395 -0.0216,0.0431 0,0.57005 0,0.65578 0,0.38254 0,0.76508 0,1.14762 0,1.07475 0,-0.58292 0,0.49183 0,0.0546 -0.0547,-0.16394 0,-0.16394 0.0546,0 0,0.10929 0,0.16394 0,0.0546 0,0.1093 0,0.16395 0,0.0457 0,1.01808 0,0.49183"
                 style="fill:none;fill-rule:evenodd;stroke:#822424;stroke-width:1px;stroke-linecap:butt;stroke-linejoin:miter;stroke-opacity:1" />
              <path
                 inkscape:connector-curvature="0"
                 id="path12600"
                 d="m 552.78143,559.83023 c 0.21859,0 0.65578,-0.2186 0.65578,0 0,0.21859 -0.81035,-0.15457 -0.65578,0 0.19703,0.19703 0.54486,0.11813 0.81972,0.16394 0.0539,0.009 0.12531,-0.0386 0.16395,0 0.0864,0.0864 0.0546,0.27324 0.16394,0.32789 0.0691,0.0346 0.0867,-0.16394 0.16395,-0.16394 0.1222,0 0.21196,0.1253 0.32789,0.16394 0.0519,0.0173 0.1093,0 0.16395,0 0.16394,0.0546 0.33726,0.0867 0.49183,0.16395 0.0489,0.0244 -0.21859,0 -0.16394,0 0.16394,0 0.32789,0 0.49183,0 0.0546,0 -0.20258,-0.0386 -0.16394,0 0.21996,0.21997 0.74611,0.16394 0.32789,0.16394"
                 style="fill:none;fill-rule:evenodd;stroke:#822424;stroke-width:1px;stroke-linecap:butt;stroke-linejoin:miter;stroke-opacity:1" />
              <path
                 inkscape:connector-curvature="0"
                 id="path12602"
                 d="m 557.04401,565.40437 c 0.62597,-0.26169 -0.009,-0.80199 0.16394,-1.14761 0.0691,-0.13826 0.25877,-0.18964 0.3279,-0.3279 0.0489,-0.0978 -0.0214,-0.22071 0,-0.32789 0.0339,-0.16945 0.13553,-0.32137 0.16394,-0.49183 0.0269,-0.16172 0,-0.32789 0,-0.49184 0,-0.1093 -0.0489,-0.23013 0,-0.32789 0.0691,-0.13825 0.2904,-0.17794 0.32789,-0.32789 0.0296,-0.11855 -0.13431,-0.20934 -0.16394,-0.32789 -0.0372,-0.14863 0,-0.62928 0,-0.81973 0,-0.0738 -0.0249,-0.44194 0,-0.49184 0.0455,-0.0911 0.32789,-0.27502 0.32789,-0.32789 0,-0.0773 -0.18839,-0.0906 -0.16395,-0.16394 0.0489,-0.14664 0.24215,-0.19928 0.32789,-0.32789 0.0606,-0.0909 -0.0773,-0.25061 0,-0.3279 0.098,-0.098 0.32789,0.17721 0.32789,-0.16394 0,-0.0547 -0.16394,0.0546 -0.16394,0 0,-0.1222 0.1253,-0.21196 0.16394,-0.32789 0.0173,-0.0519 -0.0489,-0.13951 0,-0.16395 0.0978,-0.0489 0.25061,0.0773 0.32789,0 0.0546,-0.0546 -0.16394,-0.0867 -0.16394,-0.16394 0,-0.0547 0.1253,0.0386 0.16394,0 0.0386,-0.0386 -0.0386,-0.12531 0,-0.16395 0.0386,-0.0386 0.12531,0.0386 0.16395,0 0.27324,-0.27324 -0.60113,-0.16394 0.32789,-0.16394 0.2186,0 -0.60113,-0.0546 -0.16394,0.16394 0.0977,0.0489 0.21859,0 0.32789,0 0.0546,0 -0.16395,-0.0547 -0.16395,0 0,0.0773 0.12938,0.0948 0.16395,0.16395 0.0489,0.0978 -0.0978,0.27901 0,0.32789 0.0978,0.0489 0.2506,-0.0773 0.32789,0 0.0546,0.0547 -0.16395,0.0867 -0.16395,0.16394 0,0.0773 0.0948,0.12939 0.16395,0.16395 0.0489,0.0244 0.16394,-0.0547 0.16394,0 0,0.0546 -0.1253,-0.0386 -0.16394,0 -0.0386,0.0386 0,0.1093 0,0.16394 0,0.0547 -0.0244,0.11507 0,0.16395 0.0346,0.0691 0.0867,0.16395 0.16394,0.16395 0.0547,0 0,-0.2186 0,-0.16395 0,0.21859 0,0.43719 0,0.65578 0,0.0398 0.005,0.48657 0,0.49184 -0.0386,0.0386 -0.1253,-0.0386 -0.16394,0 -0.0386,0.0386 0.0386,0.1253 0,0.16394 -0.0386,0.0386 -0.16395,-0.0546 -0.16395,0 0,0.0773 0.24123,0.16395 0.16395,0.16395 -0.1222,0 -0.2057,-0.16395 -0.32789,-0.16395 -0.0546,0 0.0386,0.12531 0,0.16395 -0.0387,0.0386 -0.1093,0 -0.16395,0 -0.0546,0 -0.1093,0 -0.16394,0 -0.0547,0 -0.16395,0.0546 -0.16395,0 0,-0.0547 0.21859,0 0.16395,0 -0.1093,0 -0.22421,-0.0346 -0.3279,0 -0.0733,0.0244 -0.0867,0.16395 -0.16394,0.16395 -0.0546,0 0.0546,-0.16395 0,-0.16395 -0.0773,0 -0.16395,0.0867 -0.16395,0.16395 0,0.0546 0.2186,0 0.16395,0 -0.40518,0 -0.40518,-0.0773 -0.16395,0.16394"
                 style="fill:none;fill-rule:evenodd;stroke:#822424;stroke-width:1px;stroke-linecap:butt;stroke-linejoin:miter;stroke-opacity:1" />
              <path
                 inkscape:connector-curvature="0"
                 id="path12604"
                 d="m 560.15897,566.2241 c 0.16395,-0.27324 0.32789,-0.54648 0.49184,-0.81973 0,-0.0546 -0.0133,-0.11092 0,-0.16394 0.0419,-0.16766 0.13005,-0.32238 0.16395,-0.49184 0.0429,-0.21435 -0.0359,-0.44016 0,-0.65578 0.037,-0.22226 0.11975,-0.43484 0.16394,-0.65578 0.0107,-0.0536 0,-0.1093 0,-0.16395 0,-0.10929 -0.0214,-0.22071 0,-0.32789 0.0339,-0.16946 0.13005,-0.32238 0.16395,-0.49184 0.005,-0.0232 -0.007,-0.81289 0,-0.81972 0.0386,-0.0386 0.1395,0.0489 0.16394,0 0.16395,-0.32789 -0.082,-0.24592 0,-0.49184 0.0386,-0.11593 0.0962,-0.22622 0.16395,-0.32789 0.0429,-0.0643 0.16394,-0.0867 0.16394,-0.16395 0,-0.0546 -0.1395,0.0489 -0.16394,0 -0.46452,-0.92902 0.23225,-0.16394 0,-0.16394 -0.0546,0 -0.0387,-0.1253 0,-0.16395 0.0386,-0.0386 0.1395,0.0489 0.16394,0 0.0489,-0.0978 0,-0.21859 0,-0.32789 0,-0.0547 0.0546,0.16395 0,0.16395 -0.0547,0 -0.0244,-0.11507 0,-0.16395 0.0346,-0.0691 0.12939,-0.0948 0.16395,-0.16394 0.0489,-0.0978 -0.1093,-0.32789 0,-0.32789 0.0546,0 -0.0386,0.20258 0,0.16394 0.0864,-0.0864 0.16394,-0.20569 0.16394,-0.32789 0,-0.0773 -0.0867,0.16395 -0.16394,0.16395 -0.0547,0 0,-0.1093 0,-0.16395 0,-0.0546 -0.0547,-0.16395 0,-0.16395 0.0546,0 -0.0386,0.12531 0,0.16395 0.0386,0.0386 0.1253,0.0386 0.16394,0 0.0773,-0.0773 -0.10929,-0.32789 0,-0.32789 0.0773,0 0.16395,0.0867 0.16395,0.16394 0,0.0547 -0.16395,0.0547 -0.16395,0 0,-0.0546 0.1093,0 0.16395,0 0.0398,0 0.48656,-0.005 0.49184,0 0.0386,0.0387 -0.0387,0.12531 0,0.16395 0.0386,0.0386 0.1253,-0.0386 0.16394,0 0.0386,0.0386 -0.0546,0.16395 0,0.16395 0.0773,0 0.0867,-0.16395 0.16395,-0.16395 0.0547,0 0,0.1093 0,0.16395 0,0.0546 0.0547,0.16394 0,0.16394 -0.0546,0 -0.0546,-0.16394 0,-0.16394 0.20258,0 0.16394,0.22991 0.16394,0.32789 0,0.0546 0.0546,0.16394 0,0.16394 -0.0547,0 0,-0.21859 0,-0.16394 0,0.10929 0,0.21859 0,0.32789 0,0.0546 -0.0386,-0.20259 0,-0.16395 0.0864,0.0864 0.0775,0.24149 0.16395,0.32789 0.0386,0.0387 -0.0547,-0.16394 0,-0.16394 0.0546,0 0,0.10929 0,0.16394 0,0.1093 0,0.2186 0,0.32789 0,0.0546 0,0.1093 0,0.16395 0,0.0546 0.0546,0.16395 0,0.16395 -0.0547,0 0,-0.2186 0,-0.16395 0,0.1093 0,0.21859 0,0.32789 0,0.0547 -0.0547,-0.16394 0,-0.16394 0.0546,0 0,0.10929 0,0.16394 0,0.0547 0,0.1093 0,0.16395 0,0.54648 0,-0.38254 0,0.16394 0,0.0546 0.0546,0.16395 0,0.16395 -0.0773,0 -0.0906,-0.18839 -0.16395,-0.16395 -0.14664,0.0489 -0.21859,0.2186 -0.32789,0.32789 -0.0546,0.0547 0.0867,-0.16394 0.16395,-0.16394 0.0547,0 0.0386,0.1253 0,0.16394 -0.0386,0.0387 -0.1093,0 -0.16395,0 -0.0546,0 -0.16394,0.0547 -0.16394,0 0,-0.0546 0.16394,-0.0546 0.16394,0 0,0.0547 -0.1093,0 -0.16394,0 -0.1093,0 -0.2186,0 -0.3279,0 -0.0546,0 0.16395,-0.0546 0.16395,0 0,0.0547 -0.1093,0 -0.16395,0 -0.0398,0 -0.48656,0.005 -0.49183,0 -0.0386,-0.0386 0.0386,-0.1253 0,-0.16394 -0.0386,-0.0386 -0.11507,0.0244 -0.16395,0 -0.25972,-0.12986 -0.16394,-0.54872 -0.16394,-0.16395"
                 style="fill:none;fill-rule:evenodd;stroke:#822424;stroke-width:1px;stroke-linecap:butt;stroke-linejoin:miter;stroke-opacity:1" />
              <path
                 inkscape:connector-curvature="0"
                 id="path12606"
                 d="m 565.24128,559.0105 c 0,0.21859 0,0.43719 0,0.65578 -0.10929,0 -0.27901,-0.0978 -0.32789,0 -0.0547,0.1093 0.16395,0.20569 0.16395,0.32789 0,0.1222 -0.13998,0.20807 -0.16395,0.32789 -0.0322,0.16077 0,0.32789 0,0.49184 0,0.21859 0,0.43719 0,0.65578 0,0.1093 0.0265,0.22186 0,0.32789 -0.0296,0.11855 -0.0775,0.24149 -0.16394,0.32789 -0.0387,0.0387 0,-0.21859 0,-0.16394 0,0.1093 0.0489,0.23013 0,0.32789 -0.0691,0.13825 -0.25877,0.18964 -0.32789,0.32789 -0.0244,0.0489 0.1395,-0.0489 0.16394,0 0.0489,0.0978 0.0489,0.23013 0,0.32789 -0.0489,0.0978 -0.32789,-0.1093 -0.32789,0 0,0.1222 0.0775,0.24149 0.16395,0.32789 0.0386,0.0386 0.0489,-0.18838 0,-0.16394 -0.13825,0.0691 -0.25877,0.18964 -0.32789,0.32789 -0.0244,0.0489 0.16394,-0.0547 0.16394,0 0,0.17281 -0.0417,0.36964 -0.16394,0.49183 -0.0546,0.0546 -0.16395,-0.24123 -0.16395,-0.16394 0,0.1222 0.0775,0.24148 0.16395,0.32789 0.0386,0.0386 0.0386,-0.20259 0,-0.16395 -0.0864,0.0864 -0.0546,0.27325 -0.16395,0.3279 -0.0691,0.0346 -0.16395,-0.24123 -0.16395,-0.16395 0,0.1222 0.0775,0.24148 0.16395,0.32789 0.0386,0.0386 0,-0.21859 0,-0.16394 0,0.10929 0,0.21859 0,0.32789 0,0.0546 0,-0.2186 0,-0.16395 0,0.1093 0.0978,0.27901 0,0.32789 -0.1093,0.0546 -0.24148,-0.25035 -0.32789,-0.16394 -0.0864,0.0864 0.1253,0.21196 0.16394,0.32789 0.0173,0.0518 0,0.10929 0,0.16394 0,0.1093 0.0489,0.23014 0,0.32789 -0.0691,0.13825 -0.27901,0.18126 -0.32789,0.32789 -0.0244,0.0733 0.0867,0.16395 0.16395,0.16395 0.0547,0 0.0386,-0.20259 0,-0.16395 -0.0864,0.0864 -0.0775,0.24149 -0.16395,0.3279 -0.0386,0.0386 0,-0.2186 0,-0.16395 0,1.07475 0,-0.58292 0,0.49184 0,0.0546 -0.0386,-0.12531 0,-0.16395 0.007,-0.007 0.59558,0 0.65579,0 0.61934,0 -0.72865,0 0.32789,0 0.0546,0 -0.16395,0.0546 -0.16395,0 0,-0.0546 0.1093,0 0.16395,0 0.0546,0 0.10929,0 0.16394,0 0.0546,0 0.16395,-0.0546 0.16395,0 0,0.0546 -0.16395,0.0546 -0.16395,0 0,-0.0546 0.1093,0 0.16395,0 0.10929,0 0.21859,0 0.32789,0"
                 style="fill:none;fill-rule:evenodd;stroke:#822424;stroke-width:1px;stroke-linecap:butt;stroke-linejoin:miter;stroke-opacity:1" />
              <path
                 inkscape:connector-curvature="0"
                 id="path12608"
                 d="m 568.84808,560.32206 c 0.0546,0.27325 0.16395,0.54108 0.16395,0.81973 0,0.0773 -0.12938,0.0948 -0.16395,0.16395 -0.0299,0.0598 0,0.72526 0,0.81972 0,0.67099 -0.0386,-0.48246 0.16395,0.32789 0.0398,0.15906 0,0.3279 0,0.49184 0,0.2186 0,0.43719 0,0.65578 0,0.32789 0,0.65579 0,0.98368 0,0.0738 0.0249,0.44194 0,0.49183 -0.0346,0.0691 -0.12938,0.0948 -0.16395,0.16395 -0.0325,0.065 0.0335,0.45832 0,0.49183 -0.0386,0.0386 -0.1395,-0.0489 -0.16394,0 -0.0489,0.0978 0,0.2186 0,0.3279 0,0.0546 0,-0.2186 0,-0.16395 0,0.1093 0,0.21859 0,0.32789 0,0.0546 0.0386,-0.20259 0,-0.16394 -0.0864,0.0864 -0.16395,0.20569 -0.16395,0.32789 0,0.0773 0.1093,-0.2186 0.16395,-0.16395 0.0773,0.0773 0.0773,0.25061 0,0.32789 -0.0546,0.0546 -0.0867,-0.16394 -0.16395,-0.16394 -0.10929,0 0.0773,0.2506 0,0.32789 -0.0386,0.0386 -0.16394,0.0546 -0.16394,0 0,-0.0547 0.1253,-0.0386 0.16394,0 0.0387,0.0386 -0.0546,0.16394 0,0.16394 0.1222,0 0.24149,-0.0775 0.32789,-0.16394 0.0386,-0.0386 -0.16394,0.0546 -0.16394,0 0,-0.0547 0.1093,0 0.16394,0 0.16395,0 0.3279,0 0.49184,0 0.1093,0 0.21859,0 0.32789,0 0.0546,0 -0.16394,0.0546 -0.16394,0 0,-0.0547 0.10929,0 0.16394,0 0.0546,0 0.16395,-0.0547 0.16395,0 0,0.0546 -0.16395,0.0546 -0.16395,0 0,-0.0547 0.1093,0 0.16395,0 0.10929,0 0.21859,0 0.32789,0"
                 style="fill:none;fill-rule:evenodd;stroke:#822424;stroke-width:1px;stroke-linecap:butt;stroke-linejoin:miter;stroke-opacity:1" />
              <path
                 inkscape:connector-curvature="0"
                 id="path12610"
                 d="m 568.35625,563.92886 c 2.12849,0.25569 -0.38901,0.16395 0.81973,0.16395 0.0546,0 -0.2186,0 -0.16395,0 0.1093,0 0.21859,0 0.32789,0 0.0547,0 -0.16394,0.0546 -0.16394,0 0,-0.0547 0.10929,0 0.16394,0 0.0547,0 0.16395,-0.0547 0.16395,0 0,0.0546 -0.2186,0 -0.16395,0 0.1093,0 0.21859,0 0.32789,0 0.0546,0 -0.21859,0 -0.16394,0 0.10929,0 0.21859,0 0.32789,0 0.0546,0 -0.2186,0 -0.16395,0 1.05654,0 -0.29146,0 0.32789,0"
                 style="fill:none;fill-rule:evenodd;stroke:#822424;stroke-width:1px;stroke-linecap:butt;stroke-linejoin:miter;stroke-opacity:1" />
              <path
                 inkscape:connector-curvature="0"
                 id="path12612"
                 d="m 568.52019,560.64995 c 0.95862,0 0.6058,0 1.14762,0 0.0546,0 -0.21859,0 -0.16394,0 0.10929,0 0.21859,0 0.32789,0 0.0546,0 -0.2186,0 -0.16395,0 0.1093,0 0.2186,0 0.32789,0 0.0547,0 -0.21859,0 -0.16394,0 0.10929,0 0.21859,0 0.32789,0 0.0547,0 -0.1253,-0.0386 -0.16395,0 -0.0386,0.0386 -0.0489,0.13951 0,0.16395 0.0978,0.0489 0.2186,0 0.32789,0 0.0546,0 -0.10929,0 -0.16394,0"
                 style="fill:none;fill-rule:evenodd;stroke:#822424;stroke-width:1px;stroke-linecap:butt;stroke-linejoin:miter;stroke-opacity:1" />
            </g>
            <path
               style="fill:none;fill-rule:evenodd;stroke:#b15050;stroke-width:1.60000002;stroke-linecap:round;stroke-linejoin:miter;stroke-miterlimit:4;stroke-dasharray:none;stroke-opacity:1"
               d="m 563.10999,576.71661 c -1.65581,-1.49459 -4.20871,-1.17132 -6.04967,-0.21603 -1.16929,0.71961 -1.7801,2.1364 -3.10767,2.63345 -0.90401,0.77748 -0.93309,2.13135 -1.46825,3.15019 -0.64733,1.9287 -0.61569,3.99884 -1.12805,5.95342 -0.46456,1.07487 -0.60634,2.22544 -0.69423,3.38025 -0.13854,1.29023 0.14123,2.75298 1.25987,3.55247 1.07613,1.03604 2.40829,2.06058 3.98547,1.97492 1.40261,0.0854 2.83317,0.4262 4.22444,0.0641 1.60824,-1.10422 3.64191,-1.6982 4.85994,-3.29572 1.18659,-2.40856 0.54024,-5.15192 0.79448,-7.71954 0.0613,-1.59953 0.36202,-3.25898 -0.0879,-4.82188 -0.72062,-1.30465 -2.31746,-1.63415 -3.64957,-1.95063 -1.81631,-0.16956 -3.8,-0.25766 -5.43605,0.67979 -1.13442,0.69526 -1.14695,2.17951 -1.42427,3.34069 -0.21103,1.52793 -0.37059,3.07725 -0.67586,4.58143 0.0958,1.32469 -0.55913,2.76278 0.1849,3.99311 1.34843,1.12848 3.21813,1.60861 4.95419,1.41821 1.29822,-0.11485 1.93057,-1.48309 2.23293,-2.59184 0.27684,-1.38774 0.80186,-2.89345 0.15393,-4.25987 -0.39905,-0.92959 -1.21083,-1.71177 -2.2147,-1.93421 -1.16863,-1.33977 -3.87635,-0.51506 -3.85783,1.33549 -0.0462,0.99647 -0.0557,2.54253 1.0648,2.92875 0.64565,-0.0408 0.55457,0.0699 0.99653,0.0997"
               id="path12624"
               inkscape:connector-curvature="0" />
          </g>
        </g>
        <path
           inkscape:connector-curvature="0"
           style="enable-background:accumulate;color:#000000;stroke:#000000;stroke-width:1px;fill:#b7c4c8;opacity:0.712"
           sodipodi:nodetypes="ccccccc"
           d="m520.33 580.44 142.79 32.188 16.06-4.325-0.39187 35.757-17.605 5.112-141.1-34.124z"
           id="path8490" />
        <g
           id="g12653">
          <g
             transform="translate(-6.0659832,2.2952369)"
             id="g12658">
            <path
               style="fill:#d1bb75;fill-opacity:1;fill-rule:evenodd;stroke:#000000;stroke-width:1px;stroke-linecap:round;stroke-linejoin:round;stroke-opacity:1;enable-background:new"
               d="m 543.60048,448.0194 -0.49184,18.52584 30.9857,4.75442 11.31224,-6.88571 0.49183,-19.34557 -12.45985,2.45918 -24.91972,-1.47551 z"
               id="path12649"
               inkscape:connector-curvature="0" />
            <path
               sodipodi:nodetypes="ccccc"
               inkscape:connector-curvature="0"
               id="path12647"
               d="m 552.78142,439.65817 -9.34489,7.70544 31.80543,4.91837 10.49251,-6.88571 c -10.69186,-2.80875 -22.06935,-3.78461 -32.95305,-5.7381 z"
               style="fill:#d1bb75;fill-opacity:1;fill-rule:evenodd;stroke:#000000;stroke-width:1px;stroke-linecap:round;stroke-linejoin:round;stroke-opacity:1" />
            <path
               inkscape:connector-curvature="0"
               id="path12651"
               d="m 574.91407,452.44593 -0.49184,18.85373"
               style="fill:none;fill-rule:evenodd;stroke:#000000;stroke-width:1px;stroke-linecap:round;stroke-linejoin:round;stroke-opacity:1" />
          </g>
        </g>
        <path
           inkscape:connector-curvature="0"
           style="stroke:#000000;stroke-width:1px;fill:#b7c4c8;opacity:0.712"
           d="m522.27 453.62 60.02 8.9546 13.311-3.1462-0.24202 14.763-12.343 4.1143-60.746-9.4386z"
           id="path8486" />
        <g
           style="stroke-width:1.08663265;stroke-miterlimit:4;stroke-dasharray:none"
           transform="matrix(0.84476879,0,0,1.0025283,170.38111,-47.226091)"
           id="g12663">
          <g
             style="stroke-width:1.08663265;stroke-miterlimit:4;stroke-dasharray:none"
             id="g12665"
             transform="translate(-6.0659832,2.2952369)">
            <g
               id="g12694">
              <g
                 id="g12673">
                <path
                   inkscape:connector-curvature="0"
                   id="path12667"
                   d="m 543.60048,448.0194 -0.49184,18.52584 30.9857,4.75442 11.31224,-6.88571 0.49183,-19.34557 -12.45985,2.45918 -24.91972,-1.47551 z"
                   style="fill:#96b68f;fill-opacity:1;fill-rule:evenodd;stroke:#000000;stroke-width:1.08663265;stroke-linecap:round;stroke-linejoin:round;stroke-opacity:1;enable-background:new;stroke-miterlimit:4;stroke-dasharray:none" />
                <path
                   style="fill:#96b68f;fill-opacity:1;fill-rule:evenodd;stroke:#000000;stroke-width:1.08663265;stroke-linecap:round;stroke-linejoin:round;stroke-opacity:1;stroke-miterlimit:4;stroke-dasharray:none"
                   d="m 552.78142,439.65817 -9.34489,7.70544 31.80543,4.91837 10.49251,-6.88571 c -10.69186,-2.80875 -22.06935,-3.78461 -32.95305,-5.7381 z"
                   id="path12669"
                   inkscape:connector-curvature="0"
                   sodipodi:nodetypes="ccccc" />
                <path
                   style="fill:none;fill-rule:evenodd;stroke:#000000;stroke-width:1.08663265;stroke-linecap:round;stroke-linejoin:round;stroke-opacity:1;stroke-miterlimit:4;stroke-dasharray:none"
                   d="m 574.91407,452.44593 -0.49184,18.85373"
                   id="path12671"
                   inkscape:connector-curvature="0" />
              </g>
              <g
                 id="g12690">
                <path
                   inkscape:connector-curvature="0"
                   id="path12678"
                   d="m 550.33633,453.92538 c 1.3057,1.63694 3.13041,2.77776 5.07265,3.51066 1.78048,0.74087 3.63275,1.47097 4.79205,3.10343 1.23121,0.98695 2.19282,2.23029 3.6403,2.97406 0.38815,0.22578 0.88877,0.92631 1.24435,0.87792"
                   style="fill:none;fill-rule:evenodd;stroke:#58523a;stroke-width:1.08663273px;stroke-linecap:butt;stroke-linejoin:miter;stroke-opacity:1" />
                <path
                   inkscape:connector-curvature="0"
                   id="path12680"
                   d="m 566.8324,455.39717 c -2.73017,2.03358 -6.10541,2.76122 -9.376,3.40654 -2.36391,0.4486 -5.01966,0.36051 -6.9432,2.04201 -0.74235,-0.0557 -0.66038,0.81146 -1.14727,0.76561"
                   style="fill:none;fill-rule:evenodd;stroke:#58523a;stroke-width:1.08663273px;stroke-linecap:butt;stroke-linejoin:miter;stroke-opacity:1" />
              </g>
            </g>
          </g>
        </g>
        <path
           inkscape:connector-curvature="0"
           style="stroke:#000000;stroke-width:1px;fill:#b7c4c8;opacity:0.712"
           sodipodi:nodetypes="ccccccc"
           d="m600.44 409.33-0.24202 15.247 65.102 8.7126 15.777-3.6302 0.19626-14.763-14.279 2.6622z"
           id="path8484" />
        <g
           id="g12737">
          <path
             style="fill:#b9a86f;fill-rule:evenodd;stroke:#000000;stroke-width:1px;stroke-linecap:butt;stroke-linejoin:miter;stroke-opacity:1;fill-opacity:1"
             d="m 359.81758,494.57992 c 1.93073,7.97742 5.95745,15.18954 9.56504,22.48723 2.75317,3.04977 5.82613,6.80267 10.1823,7.23956 5.71843,1.97802 11.85923,0.82129 17.71778,0.46986 3.98573,-0.93663 9.67437,-0.31909 11.62267,-4.79897 1.44015,-4.19446 -0.11438,-8.48308 -2.16347,-12.16857 -2.1659,-3.80801 -4.08712,-7.72102 -5.55115,-11.85561 -1.41232,-3.2286 -3.20501,-7.63757 -7.49963,-7.32671 -5.10229,-1.20891 -10.44705,-1.01309 -15.50751,0.18438 -4.82457,0.56913 -9.61349,1.31327 -14.22218,2.90072 -1.15008,0.37609 -4.75928,1.23686 -4.14385,2.86811 z"
             id="path12722"
             inkscape:connector-curvature="0" />
          <path
             style="fill:none;fill-rule:evenodd;stroke:#a07474;stroke-width:1.2;stroke-linecap:round;stroke-linejoin:round;stroke-opacity:1;stroke-miterlimit:4;stroke-dasharray:none"
             d="m 368.50669,502.94114 c -1.67906,-0.93016 1.44767,-1.22765 0.7105,-2.67011 -0.23879,-2.19034 2.93311,-5.08955 3.50997,-1.72736 0.54159,1.59213 1.08528,5.08034 2.83734,2.31357 1.31959,-0.80909 1.46659,-5.25819 3.09494,-2.47873 0.85916,0.99859 1.02341,4.93873 2.09751,2.2582 0.89046,-1.24589 0.9331,-6.46616 3.02005,-3.52442 0.91087,0.78934 1.41722,3.20856 1.96802,0.83933 0.52045,-2.20295 2.52161,-2.48839 3.32892,-0.33016 0.83434,1.60591 2.4944,3.12508 2.82462,0.37676 0.51639,-2.86302 1.01041,-1.35797 2.18362,0.18849"
             id="path12727"
             inkscape:connector-curvature="0" />
          <path
             style="fill:none;fill-rule:evenodd;stroke:#a07474;stroke-width:1.2;stroke-linecap:round;stroke-linejoin:round;stroke-opacity:1;stroke-miterlimit:4;stroke-dasharray:none"
             d="m 375.72029,517.04045 c 1.59969,-1.62222 0.24844,-4.14466 1.25868,-5.97915 2.1282,-1.47051 3.64402,2.03225 4.92269,1.97207 0.0619,-1.82731 1.65615,-5.01934 3.01842,-2.04989 0.62052,2.13746 3.14669,2.06522 2.94781,-0.36616 0.0871,-1.30119 0.75926,-3.81161 1.79602,-1.53604 1.17805,1.29034 2.69715,4.63387 3.84788,1.54386 1.28346,-1.13485 2.79426,1.90676 2.89475,-0.79198 l 0.072,-0.40972 0.0626,-0.58055"
             id="path12729"
             inkscape:connector-curvature="0" />
        </g>
        <g
           transform="matrix(0,-1,1,0,-68.568799,816.30561)"
           id="g12742">
          <g
             transform="translate(1.6394549,13.607476)"
             id="g12750">
            <path
               style="fill:#d6ddd4;fill-opacity:1;fill-rule:evenodd;stroke:#000000;stroke-width:1px;stroke-linecap:butt;stroke-linejoin:miter;stroke-opacity:1"
               d="m 359.81758,494.57992 c 1.93073,7.97742 5.95745,15.18954 9.56504,22.48723 2.75317,3.04977 5.82613,6.80267 10.1823,7.23956 5.71843,1.97802 11.85923,0.82129 17.71778,0.46986 3.98573,-0.93663 9.67437,-0.31909 11.62267,-4.79897 1.44015,-4.19446 -0.11438,-8.48308 -2.16347,-12.16857 -2.1659,-3.80801 -4.08712,-7.72102 -5.55115,-11.85561 -1.41232,-3.2286 -3.20501,-7.63757 -7.49963,-7.32671 -5.10229,-1.20891 -10.44705,-1.01309 -15.50751,0.18438 -4.82457,0.56913 -9.61349,1.31327 -14.22218,2.90072 -1.15008,0.37609 -4.75928,1.23686 -4.14385,2.86811 z"
               id="path12744"
               inkscape:connector-curvature="0" />
            <path
               style="fill:none;fill-rule:evenodd;stroke:#7fa074;stroke-width:1.20000005;stroke-linecap:round;stroke-linejoin:round;stroke-miterlimit:4;stroke-dasharray:none;stroke-opacity:1"
               d="m 394.60221,520.61384 c -0.93016,1.67906 -1.22765,-1.44767 -2.67011,-0.7105 -2.19034,0.23879 -5.08955,-2.93311 -1.72736,-3.50997 1.59213,-0.54159 5.08034,-1.08528 2.31357,-2.83734 -0.80909,-1.31959 -5.25819,-1.46659 -2.47873,-3.09494 0.99859,-0.85916 4.93873,-1.02341 2.2582,-2.09751 -1.24589,-0.89046 -6.46616,-0.9331 -3.52442,-3.02005 0.78934,-0.91087 3.20856,-1.41722 0.83933,-1.96802 -2.20295,-0.52045 -2.48839,-2.52161 -0.33016,-3.32892 1.60591,-0.83434 3.12508,-2.4944 0.37676,-2.82462 -2.86302,-0.51639 -1.35797,-1.01041 0.18849,-2.18362"
               id="path12746"
               inkscape:connector-curvature="0" />
            <path
               style="fill:none;fill-rule:evenodd;stroke:#7fa074;stroke-width:1.20000005;stroke-linecap:round;stroke-linejoin:round;stroke-miterlimit:4;stroke-dasharray:none;stroke-opacity:1"
               d="m 372.347,497.76468 c 1.62222,1.59969 4.14466,0.24844 5.97915,1.25868 1.47051,2.1282 -2.03225,3.64402 -1.97207,4.92269 1.82731,0.0619 5.01934,1.65615 2.04989,3.01842 -2.13746,0.62052 -2.06522,3.14669 0.36616,2.94781 1.30119,0.0871 3.81161,0.75926 1.53604,1.79602 -1.29034,1.17805 -4.63387,2.69715 -1.54386,3.84788 1.13485,1.28346 -1.90676,2.79426 0.79198,2.89475 l 0.40972,0.072 0.58055,0.0626"
               id="path12748"
               inkscape:connector-curvature="0" />
          </g>
          <g
             id="g12755"
             transform="translate(1.6394549,13.607476)">
            <path
               inkscape:connector-curvature="0"
               id="path12757"
               d="m 359.81758,494.57992 c 1.93073,7.97742 5.95745,15.18954 9.56504,22.48723 2.75317,3.04977 5.82613,6.80267 10.1823,7.23956 5.71843,1.97802 11.85923,0.82129 17.71778,0.46986 3.98573,-0.93663 9.67437,-0.31909 11.62267,-4.79897 1.44015,-4.19446 -0.11438,-8.48308 -2.16347,-12.16857 -2.1659,-3.80801 -4.08712,-7.72102 -5.55115,-11.85561 -1.41232,-3.2286 -3.20501,-7.63757 -7.49963,-7.32671 -5.10229,-1.20891 -10.44705,-1.01309 -15.50751,0.18438 -4.82457,0.56913 -9.61349,1.31327 -14.22218,2.90072 -1.15008,0.37609 -4.75928,1.23686 -4.14385,2.86811 z"
               style="fill:#d6ddd4;fill-opacity:1;fill-rule:evenodd;stroke:#000000;stroke-width:1px;stroke-linecap:butt;stroke-linejoin:miter;stroke-opacity:1" />
            <path
               inkscape:connector-curvature="0"
               id="path12759"
               d="m 394.60221,520.61384 c -0.93016,1.67906 -1.22765,-1.44767 -2.67011,-0.7105 -2.19034,0.23879 -5.08955,-2.93311 -1.72736,-3.50997 1.59213,-0.54159 5.08034,-1.08528 2.31357,-2.83734 -0.80909,-1.31959 -5.25819,-1.46659 -2.47873,-3.09494 0.99859,-0.85916 4.93873,-1.02341 2.2582,-2.09751 -1.24589,-0.89046 -6.46616,-0.9331 -3.52442,-3.02005 0.78934,-0.91087 3.20856,-1.41722 0.83933,-1.96802 -2.20295,-0.52045 -2.48839,-2.52161 -0.33016,-3.32892 1.60591,-0.83434 3.12508,-2.4944 0.37676,-2.82462 -2.86302,-0.51639 -1.35797,-1.01041 0.18849,-2.18362"
               style="fill:none;fill-rule:evenodd;stroke:#7fa074;stroke-width:1.20000005;stroke-linecap:round;stroke-linejoin:round;stroke-miterlimit:4;stroke-dasharray:none;stroke-opacity:1" />
            <path
               inkscape:connector-curvature="0"
               id="path12761"
               d="m 372.347,497.76468 c 1.62222,1.59969 4.14466,0.24844 5.97915,1.25868 1.47051,2.1282 -2.03225,3.64402 -1.97207,4.92269 1.82731,0.0619 5.01934,1.65615 2.04989,3.01842 -2.13746,0.62052 -2.06522,3.14669 0.36616,2.94781 1.30119,0.0871 3.81161,0.75926 1.53604,1.79602 -1.29034,1.17805 -4.63387,2.69715 -1.54386,3.84788 1.13485,1.28346 -1.90676,2.79426 0.79198,2.89475 l 0.40972,0.072 0.58055,0.0626"
               style="fill:none;fill-rule:evenodd;stroke:#7fa074;stroke-width:1.20000005;stroke-linecap:round;stroke-linejoin:round;stroke-miterlimit:4;stroke-dasharray:none;stroke-opacity:1" />
          </g>
        </g>
        <g
           id="g12763"
           transform="matrix(0,-1,1,0,-92.668786,819.74846)">
          <g
             id="g12765"
             transform="translate(1.6394549,13.607476)">
            <path
               inkscape:connector-curvature="0"
               id="path12767"
               d="m 359.81758,494.57992 c 1.93073,7.97742 5.95745,15.18954 9.56504,22.48723 2.75317,3.04977 5.82613,6.80267 10.1823,7.23956 5.71843,1.97802 11.85923,0.82129 17.71778,0.46986 3.98573,-0.93663 9.67437,-0.31909 11.62267,-4.79897 1.44015,-4.19446 -0.11438,-8.48308 -2.16347,-12.16857 -2.1659,-3.80801 -4.08712,-7.72102 -5.55115,-11.85561 -1.41232,-3.2286 -3.20501,-7.63757 -7.49963,-7.32671 -5.10229,-1.20891 -10.44705,-1.01309 -15.50751,0.18438 -4.82457,0.56913 -9.61349,1.31327 -14.22218,2.90072 -1.15008,0.37609 -4.75928,1.23686 -4.14385,2.86811 z"
               style="fill:#d6ddd4;fill-opacity:1;fill-rule:evenodd;stroke:#000000;stroke-width:1px;stroke-linecap:butt;stroke-linejoin:miter;stroke-opacity:1" />
            <path
               inkscape:connector-curvature="0"
               id="path12769"
               d="m 394.60221,520.61384 c -0.93016,1.67906 -1.22765,-1.44767 -2.67011,-0.7105 -2.19034,0.23879 -5.08955,-2.93311 -1.72736,-3.50997 1.59213,-0.54159 5.08034,-1.08528 2.31357,-2.83734 -0.80909,-1.31959 -5.25819,-1.46659 -2.47873,-3.09494 0.99859,-0.85916 4.93873,-1.02341 2.2582,-2.09751 -1.24589,-0.89046 -6.46616,-0.9331 -3.52442,-3.02005 0.78934,-0.91087 3.20856,-1.41722 0.83933,-1.96802 -2.20295,-0.52045 -2.48839,-2.52161 -0.33016,-3.32892 1.60591,-0.83434 3.12508,-2.4944 0.37676,-2.82462 -2.86302,-0.51639 -1.35797,-1.01041 0.18849,-2.18362"
               style="fill:none;fill-rule:evenodd;stroke:#7fa074;stroke-width:1.20000005;stroke-linecap:round;stroke-linejoin:round;stroke-miterlimit:4;stroke-dasharray:none;stroke-opacity:1" />
            <path
               inkscape:connector-curvature="0"
               id="path12771"
               d="m 372.347,497.76468 c 1.62222,1.59969 4.14466,0.24844 5.97915,1.25868 1.47051,2.1282 -2.03225,3.64402 -1.97207,4.92269 1.82731,0.0619 5.01934,1.65615 2.04989,3.01842 -2.13746,0.62052 -2.06522,3.14669 0.36616,2.94781 1.30119,0.0871 3.81161,0.75926 1.53604,1.79602 -1.29034,1.17805 -4.63387,2.69715 -1.54386,3.84788 1.13485,1.28346 -1.90676,2.79426 0.79198,2.89475 l 0.40972,0.072 0.58055,0.0626"
               style="fill:none;fill-rule:evenodd;stroke:#7fa074;stroke-width:1.20000005;stroke-linecap:round;stroke-linejoin:round;stroke-miterlimit:4;stroke-dasharray:none;stroke-opacity:1" />
          </g>
          <g
             transform="translate(1.6394549,13.607476)"
             id="g12773">
            <path
               style="fill:#d6ddd4;fill-opacity:1;fill-rule:evenodd;stroke:#000000;stroke-width:1px;stroke-linecap:butt;stroke-linejoin:miter;stroke-opacity:1"
               d="m 359.81758,494.57992 c 1.93073,7.97742 5.95745,15.18954 9.56504,22.48723 2.75317,3.04977 5.82613,6.80267 10.1823,7.23956 5.71843,1.97802 11.85923,0.82129 17.71778,0.46986 3.98573,-0.93663 9.67437,-0.31909 11.62267,-4.79897 1.44015,-4.19446 -0.11438,-8.48308 -2.16347,-12.16857 -2.1659,-3.80801 -4.08712,-7.72102 -5.55115,-11.85561 -1.41232,-3.2286 -3.20501,-7.63757 -7.49963,-7.32671 -5.10229,-1.20891 -10.44705,-1.01309 -15.50751,0.18438 -4.82457,0.56913 -9.61349,1.31327 -14.22218,2.90072 -1.15008,0.37609 -4.75928,1.23686 -4.14385,2.86811 z"
               id="path12775"
               inkscape:connector-curvature="0" />
            <path
               style="fill:none;fill-rule:evenodd;stroke:#7fa074;stroke-width:1.20000005;stroke-linecap:round;stroke-linejoin:round;stroke-miterlimit:4;stroke-dasharray:none;stroke-opacity:1"
               d="m 394.60221,520.61384 c -0.93016,1.67906 -1.22765,-1.44767 -2.67011,-0.7105 -2.19034,0.23879 -5.08955,-2.93311 -1.72736,-3.50997 1.59213,-0.54159 5.08034,-1.08528 2.31357,-2.83734 -0.80909,-1.31959 -5.25819,-1.46659 -2.47873,-3.09494 0.99859,-0.85916 4.93873,-1.02341 2.2582,-2.09751 -1.24589,-0.89046 -6.46616,-0.9331 -3.52442,-3.02005 0.78934,-0.91087 3.20856,-1.41722 0.83933,-1.96802 -2.20295,-0.52045 -2.48839,-2.52161 -0.33016,-3.32892 1.60591,-0.83434 3.12508,-2.4944 0.37676,-2.82462 -2.86302,-0.51639 -1.35797,-1.01041 0.18849,-2.18362"
               id="path12777"
               inkscape:connector-curvature="0" />
            <path
               style="fill:none;fill-rule:evenodd;stroke:#7fa074;stroke-width:1.20000005;stroke-linecap:round;stroke-linejoin:round;stroke-miterlimit:4;stroke-dasharray:none;stroke-opacity:1"
               d="m 372.347,497.76468 c 1.62222,1.59969 4.14466,0.24844 5.97915,1.25868 1.47051,2.1282 -2.03225,3.64402 -1.97207,4.92269 1.82731,0.0619 5.01934,1.65615 2.04989,3.01842 -2.13746,0.62052 -2.06522,3.14669 0.36616,2.94781 1.30119,0.0871 3.81161,0.75926 1.53604,1.79602 -1.29034,1.17805 -4.63387,2.69715 -1.54386,3.84788 1.13485,1.28346 -1.90676,2.79426 0.79198,2.89475 l 0.40972,0.072 0.58055,0.0626"
               id="path12779"
               inkscape:connector-curvature="0" />
          </g>
        </g>
        <g
           transform="translate(-18.034004,1.8034004)"
           id="g12791">
          <path
             style="fill:#f0f0f0;fill-opacity:1;fill-rule:evenodd;stroke:#000000;stroke-width:1px;stroke-linecap:round;stroke-linejoin:round;stroke-opacity:1"
             d="m 376.21213,375.88338 c 2.73745,5.10723 4.34121,10.83053 7.85242,15.49917 6.17992,1.79878 12.62686,2.23959 19.02543,1.78783 5.08738,0.11521 10.0402,-1.14461 15.0922,-1.54822 3.55432,-1.06862 5.89427,-3.74589 4.46407,-7.55617 -0.18424,-4.49173 -2.07791,-8.62682 -3.62228,-12.75316 -2.15704,-3.44918 -6.16851,-4.71526 -10.01189,-4.9107 -3.83418,-0.54158 -7.79785,0.1451 -11.58839,-0.9127 -4.69711,-0.90878 -9.39947,0.60904 -13.93607,1.62548 -3.34754,1.82334 -8.77801,3.85343 -7.27549,8.76847 z"
             id="path12781"
             inkscape:connector-curvature="0" />
          <path
             style="fill:#dbacac;fill-opacity:1;fill-rule:evenodd;stroke:#000000;stroke-width:1px;stroke-linecap:round;stroke-linejoin:round;stroke-opacity:1"
             d="m 396.86926,370.14529 c -2.82081,-3.44745 -4.62367,1.97702 -5.07039,3.35993 -2.57428,-3.48488 -7.05525,1.33326 -5.80032,2.53 -2.80557,-1.28924 -3.63899,3.67867 -0.9399,4.28279 -1.94796,3.7191 0.85881,7.37961 4.9804,6.70826 1.60456,-0.92585 1.37061,-1.9314 2.8382,-0.20397 3.4712,-0.0638 6.58272,0.9213 10.08344,0.86535 1.53407,-0.0859 3.20433,0.21007 4.61942,-0.22309 1.51421,3.02091 6.05291,1.52372 5.35148,-1.88987 5.27625,0.52968 1.48187,-5.81883 3.88828,-8.03318 -0.0867,-1.86735 -2.34729,-3.02389 -2.02699,-5.46207 -2.83163,1.2954 -5.76009,-4.26425 -8.9071,-0.74483 -1.85729,2.35624 -1.48043,-2.96697 -4.23847,-0.78685 -1.19272,-2.56278 -2.81401,-1.55522 -4.77805,-0.40247 z"
             id="path12783"
             inkscape:connector-curvature="0" />
        </g>
        <path
           inkscape:connector-curvature="0"
           id="path12795"
           d="m 421.29714,383.26093 c -0.56743,-2.27915 -0.57093,-4.657 -1.0915,-6.95015 -0.28736,-2.15082 -0.32038,-4.81238 1.8157,-6.05374 2.56987,-1.28743 4.59956,2.46113 5.14126,4.58435 1.15118,3.2538 1.59963,7.05424 0.12537,10.23922 -1.44147,1.18421 -5.02865,1.61886 -5.65284,-0.37372 -0.39578,-0.98837 -0.20955,-1.06004 -0.33354,-1.23124 -0.01,-0.071 -3.9e-4,-0.14344 -0.004,-0.21472 z"
           style="fill:#c6b88a;fill-rule:evenodd;stroke:#000000;stroke-width:1px;stroke-linecap:round;stroke-linejoin:round;stroke-opacity:1;fill-opacity:1" />
        <path
           sodipodi:nodetypes="cccccc"
           inkscape:connector-curvature="0"
           id="path12797"
           d="m 434.74067,372.27658 c -3.13654,1.73752 -4.41968,5.2481 -4.28648,8.84799 0.1193,2.20387 -0.004,4.60007 0.96041,6.63074 1.39966,3.78277 5.87351,0.82855 6.06532,-2.10907 1.08929,-3.0573 0.75315,-6.37772 0.83727,-9.57117 0.71401,-2.38107 -2.21644,-2.93398 -3.57652,-3.79849 z"
           style="fill:#c6b88a;fill-rule:evenodd;stroke:#000000;stroke-width:1px;stroke-linecap:round;stroke-linejoin:round;stroke-opacity:1;fill-opacity:1" />
        <path
           inkscape:connector-curvature="0"
           id="path12799"
           d="m 444.61005,372.11263 c -1.35839,2.31412 -3.91425,4.32768 -2.95944,7.33231 -0.23158,2.26186 0.27791,4.41455 1.58864,6.28128 1.57128,2.17599 5.34835,1.33137 6.07171,-1.19987 0.25834,-1.90713 0.52659,-4.54729 0.76594,-6.75122 0.75932,-2.30554 -0.32061,-4.86428 -2.64893,-5.70278 -0.91952,-0.25655 -1.89834,-0.16246 -2.81792,0.0403 z"
           style="fill:#c6b88a;fill-opacity:1;fill-rule:evenodd;stroke:#000000;stroke-width:1px;stroke-linecap:round;stroke-linejoin:round;stroke-opacity:1" />
        <g
           transform="translate(-3.4428553,1.1476184)"
           id="g12819">
          <path
             style="fill:#dddfe3;fill-opacity:1;fill-rule:evenodd;stroke:#000000;stroke-width:1px;stroke-linecap:butt;stroke-linejoin:miter;stroke-opacity:1"
             d="m 365.55567,312.10858 c 1.45888,3.77719 1.83447,8.24052 4.2092,11.48661 5.01036,1.51906 10.5132,-0.0505 15.73465,0.6525 7.90218,-0.65179 15.84301,-1.02629 23.76028,-1.6166 4.80643,0.16799 9.56994,-0.26841 14.21613,-1.52806 4.15787,0.50719 11.68488,-0.19555 9.27916,-6.32565 -1.17563,-4.48629 -3.13608,-10.28205 -8.54228,-10.82354 -8.00129,-0.75892 -16.06797,0.0689 -24.10059,-0.21076 -10.18366,0.74262 -20.49097,-0.32619 -30.60049,1.31131 -3.68202,0.0429 -10.75724,3.37755 -4.80579,6.44675 l 0.84973,0.60744 0,0 z"
             id="path12810"
             inkscape:connector-curvature="0" />
          <path
             style="fill:#a0aec3;fill-opacity:1;fill-rule:evenodd;stroke:#000000;stroke-width:1px;stroke-linecap:round;stroke-linejoin:round;stroke-opacity:1"
             d="m 374.24478,309.6494 c -0.21808,3.14639 0.90145,6.11998 1.18685,9.21844 0.10058,3.25451 4.31675,-0.42468 5.66187,-1.54332 0.98086,-1.85013 4.15488,0.50808 6.17046,0.36423 2.96946,-0.0505 5.92792,0.29587 8.90911,0.1579 3.04015,-0.4394 5.96757,0.96676 8.89324,0.008 4.10121,-0.0319 8.20935,0.0237 12.30949,-0.0264 2.3525,-0.79707 5.79558,-0.64266 8.01645,-2.40291 1.37069,-0.92435 2.06865,-3.91596 1.15115,-5.93949 -0.82679,-2.00278 -2.8222,-3.2146 -5.15658,-3.76346 -2.84368,-0.35716 -5.74596,-0.0872 -8.61485,-0.17124 -2.25572,1.22433 -5.48991,2.04856 -7.60246,2.4189 -1.52776,0.89144 -3.18175,0.90332 -4.79044,1.31042 -1.38984,0.5295 -4.78489,1.42364 -6.94032,2.13107 -2.05514,0.19624 -4.31082,0.92913 -6.67096,1.40068 -2.3772,0.89232 -5.22108,0.94309 -7.26543,-0.96754 -1.75706,-0.65414 -3.14163,-2.56806 -5.25758,-2.19491 z"
             id="path12815"
             inkscape:connector-curvature="0" />
        </g>
        <g
           transform="matrix(-1,0,0,1,996.2112,37.543518)"
           id="g12823">
          <g
             id="g12825"
             transform="translate(-6.0659832,2.2952369)">
            <g
               transform="translate(-5.2462557,2.1312914)"
               id="g12839">
              <path
                 style="fill:#b7b0bb;fill-opacity:1;fill-rule:evenodd;stroke:#000000;stroke-width:1px;stroke-linecap:round;stroke-linejoin:round;stroke-opacity:1;enable-background:new"
                 d="m 543.60048,448.0194 -0.49184,18.52584 30.9857,4.75442 11.31224,-6.88571 0.49183,-19.34557 -12.45985,2.45918 -24.91972,-1.47551 z"
                 id="path12827"
                 inkscape:connector-curvature="0" />
              <path
                 sodipodi:nodetypes="ccccc"
                 inkscape:connector-curvature="0"
                 id="path12829"
                 d="m 552.78142,439.65817 -9.34489,7.70544 31.80543,4.91837 10.49251,-6.88571 c -10.69186,-2.80875 -22.06935,-3.78461 -32.95305,-5.7381 z"
                 style="fill:#b7b0bb;fill-opacity:1;fill-rule:evenodd;stroke:#000000;stroke-width:1px;stroke-linecap:round;stroke-linejoin:round;stroke-opacity:1" />
              <path
                 inkscape:connector-curvature="0"
                 id="path12831"
                 d="m 574.91407,452.44593 -0.49184,18.85373"
                 style="fill:none;fill-rule:evenodd;stroke:#000000;stroke-width:1px;stroke-linecap:round;stroke-linejoin:round;stroke-opacity:1" />
              <path
                 style="fill:none;fill-rule:evenodd;stroke:#7a628e;stroke-width:1.79999995;stroke-linecap:round;stroke-linejoin:round;stroke-miterlimit:4;stroke-dasharray:none;stroke-opacity:1"
                 d="m 567.37256,464.57789 c 0.89845,-1.56092 2.22307,-4.22712 0.56651,-5.60921 -2.10355,-1.69392 -3.58935,1.76315 -4.91349,3.07378 -1.12066,1.59846 -3.01792,3.93888 -4.91446,1.76955 -1.63544,-0.91552 -2.15914,-3.09269 -1.87746,-4.89617 0.40999,-1.5226 -0.80088,-5.66906 -2.56164,-4.0633 -1.31479,1.55156 -1.80035,3.70113 -2.66012,5.55548 -0.58698,2.52447 -3.40285,2.69749 -3.19128,-0.14775 -0.29971,-1.22116 -0.68863,-2.42361 -0.61305,-3.71632"
                 id="path12833"
                 inkscape:connector-curvature="0" />
            </g>
            <path
               inkscape:connector-curvature="0"
               id="path12845"
               d="m 562.12631,280.30316 c 1.57488,-4.04361 4.70398,-7.39582 5.40489,-11.79407 1.42781,-1.95627 -0.29919,-6.09316 -2.38479,-3.0053 -2.46873,2.51255 -1.03063,-3.82173 -1.85895,-5.26039 -2.12098,-4.0046 -4.07198,7.16677 -3.83043,1.93027 -0.58835,-4.01443 -3.71547,-2.39651 -4.04676,0.34704 -0.6564,-4.19038 -5.73921,-0.86837 -5.16101,1.92355 -1.96034,-1.37262 -4.89552,-1.73581 -4.74224,1.58156 -0.40143,1.41359 0.60772,3.55199 -1.19854,1.75229 -3.32221,0.23785 -3.05999,5.02749 -0.25616,6.0635 1.9389,1.95338 3.71888,3.99029 4.80902,6.56274 1.03951,3.48732 4.33009,5.07128 7.60637,3.22084 2.53419,0.5096 5.95012,0.37123 5.47475,-2.863 l 0.0731,-0.27683 0.11079,-0.1822 0,0 z"
               style="fill:#a0ad9e;fill-opacity:1;fill-rule:evenodd;stroke:#000000;stroke-width:1px;stroke-linecap:round;stroke-linejoin:round;stroke-opacity:1" />
            <g
               transform="translate(0.98367295,0.16394549)"
               id="g12867">
              <path
                 style="fill:#6a6a6a;fill-opacity:1;fill-rule:evenodd;stroke:#000000;stroke-width:1px;stroke-linecap:butt;stroke-linejoin:miter;stroke-opacity:1"
                 d="m 367.35906,406.70514 c -1.55474,3.58787 0.8383,7.32674 2.1358,10.61478 1.98456,3.91033 5.44164,6.80897 7.52586,10.66513 2.25657,2.91325 2.67092,8.02704 -1.02612,9.98899 -3.54872,1.53652 -7.26656,2.76474 -10.929,3.97693 -3.2617,0.38497 -10.88999,0.63406 -9.50396,-4.51384 -0.23167,-2.96828 -0.4458,-6.07059 1.67275,-8.5008 1.54857,-3.32066 3.54918,-6.53876 3.40286,-10.39389 -0.0667,-3.84711 0.53076,-8.27484 -1.9139,-11.51963 2.2779,-0.93928 5.01164,-1.62915 7.15159,-0.24542 0.33792,-0.89899 1.00534,-0.22882 1.48412,-0.0723 z"
                 id="path12851"
                 inkscape:connector-curvature="0" />
              <path
                 style="fill:#c86965;fill-opacity:1;fill-rule:evenodd;stroke:#000000;stroke-width:1px;stroke-linecap:butt;stroke-linejoin:miter;stroke-opacity:1"
                 d="m 364.57199,409.49221 c 3.12118,0.3264 4.77392,-2.50667 5.09207,-4.92005 2.73853,-1.15294 6.09987,-6.29395 0.86036,-6.19855 -4.12693,-0.1935 -8.29365,0.18814 -12.38338,0.76437 -2.37531,0.35681 -9.12407,1.06148 -5.63876,4.54176 3.05016,0.25711 2.92237,4.99667 6.41581,5.45715 1.81956,0.53173 3.79317,0.95664 5.6539,0.35532 z"
                 id="path12853"
                 inkscape:connector-curvature="0" />
              <path
                 style="fill:none;fill-rule:evenodd;stroke:#d0b54f;stroke-width:1px;stroke-linecap:round;stroke-linejoin:round;stroke-opacity:1"
                 d="m 370.80192,427.36226 c -0.5198,-0.016 -0.63839,-0.56475 -0.65726,-0.98619 -0.10428,-0.3736 0.0563,-0.78893 -0.38681,-1.02569 -0.11516,-0.12496 -0.14834,-0.37923 -0.17874,-0.40792 0.0619,-0.41379 -0.48404,-0.70983 -0.79447,-0.93922 -0.39626,-0.195 -0.85967,-0.44038 -1.2992,-0.27605 -0.46999,-0.068 -0.76413,0.21807 -0.78874,0.6799 -0.0719,0.59707 -0.0197,1.20864 -0.15919,1.79654 -0.008,0.515 -0.0724,1.03434 -0.25855,1.51745 0.0171,0.16212 -0.25052,0.53347 -0.13882,0.29933 -0.50378,0.008 -0.7103,-0.537 -0.80345,-0.94611 -0.0159,-0.28756 -0.15771,-0.37366 -0.40479,-0.43814 -0.16244,-0.34665 0.23869,-0.76348 -0.0248,-1.10098 -0.44909,-0.24795 -0.10622,-1.00358 -0.59105,-1.19303 -0.23652,-0.0489 -0.23134,0.26654 -0.37246,0.42394 0.15707,0.21771 -0.25689,0.48154 -0.13294,0.80238 -0.0707,0.25006 -0.16518,0.36165 -0.16016,0.62187 -0.17694,0.25142 -0.6204,0.57233 -0.27284,0.88384 -0.32105,0.14661 -0.12685,0.64291 -0.30135,0.88003 0.11914,0.41144 -0.0876,0.95639 -0.51919,1.08443 -0.43233,-9.6e-4 -0.48593,-0.60325 -0.95631,-0.62111 -0.32645,-0.0895 0.24704,-0.32136 -0.0746,-0.22187 -0.31747,-0.1993 -0.23058,0.55898 -0.41404,0.70508 -0.1854,0.0661 -0.14403,0.52276 -0.47478,0.59248"
                 id="path12861"
                 inkscape:connector-curvature="0" />
            </g>
          </g>
        </g>
        <path
           inkscape:connector-curvature="0"
           style="stroke:#000000;stroke-width:1px;fill:#b7c4c8;opacity:0.712"
           sodipodi:nodetypes="ccccccc"
           d="m599.47 465 0.0201 15.208 65.082 10.445 15.439-3.6782 0.0502-15.925-14.763 3.8722z"
           id="path8488" />
      </g>
    </g>
  </g>
  <metadata
     id="metadata11934">
    <rdf:RDF>
      <cc:Work>
        <dc:format>image/svg+xml</dc:format>
        <dc:type
           rdf:resource="http://purl.org/dc/dcmitype/StillImage" />
        <cc:license
           rdf:resource="http://creativecommons.org/publicdomain/zero/1.0/" />
        <dc:publisher>
          <cc:Agent
             rdf:about="http://openclipart.org/">
            <dc:title>Openclipart</dc:title>
          </cc:Agent>
        </dc:publisher>
        <dc:title>Frigorifero - Refrigerator</dc:title>
        <dc:date></dc:date>
        <dc:description>remix by j4p4n</dc:description>
        <dc:source></dc:source>
        <dc:creator>
          <cc:Agent>
            <dc:title>krypt</dc:title>
          </cc:Agent>
        </dc:creator>
        <dc:subject>
          <rdf:Bag>
            <rdf:li>Frigorifero</rdf:li>
            <rdf:li>Refrigerator</rdf:li>
          </rdf:Bag>
        </dc:subject>
      </cc:Work>
      <cc:License
         rdf:about="http://creativecommons.org/publicdomain/zero/1.0/">
        <cc:permits
           rdf:resource="http://creativecommons.org/ns#Reproduction" />
        <cc:permits
           rdf:resource="http://creativecommons.org/ns#Distribution" />
        <cc:permits
           rdf:resource="http://creativecommons.org/ns#DerivativeWorks" />
      </cc:License>
    </rdf:RDF>
  </metadata>
</svg>
